<svg width="440" height="69" viewBox="0 0 440 69" fill="none" xmlns="http://www.w3.org/2000/svg">
<g clip-path="url(#clip0_38_2426)">
<path d="M19.0106 11.616C19.0714 10.238 18.1098 4.81665 20.2737 4.74796C23.5455 4.64546 19.0918 10.6485 18.2798 11.5007C17.6703 12.1411 18.6196 13.1372 19.2322 12.4939C20.979 10.659 25.3154 4.9086 21.0294 3.48152C16.6976 2.03949 17.7264 9.51066 17.6349 11.5872C17.5963 12.4736 18.971 12.5004 19.0106 11.616Z" fill="#952225"/>
<path d="M52.5741 20.4317C52.1592 19.0837 51.7767 17.7205 51.6873 16.3063C51.6384 15.5361 51.7227 14.7597 52.1209 14.0879C52.3582 13.6898 54.0146 12.8303 54.2705 13.5558C54.6311 14.5796 53.4733 16.2787 53.0077 17.1121C52.4631 18.0889 51.8238 19.0037 51.2467 19.9608C50.7886 20.7214 51.9619 21.4381 52.4199 20.6786C53.2893 19.2364 57.8195 13.259 54.6236 12.1198C52.7462 11.4504 50.9271 12.7736 50.4516 14.559C49.9186 16.5613 50.6536 18.8612 51.2388 20.7679C51.4991 21.6125 52.8354 21.2804 52.5741 20.4317Z" fill="#952225"/>
<path d="M87.3287 24.6355C87.2985 23.4036 85.8499 16.8728 88.1648 17.4284C89.7482 17.8096 86.9123 23.4095 86.543 24.2779C86.1958 25.0938 87.5181 25.4766 87.8611 24.6706C88.6616 22.791 91.9392 16.9233 88.3405 16.0588C84.0601 15.0299 85.9052 22.6372 85.954 24.6067C85.9755 25.4903 87.3501 25.5231 87.3287 24.6355Z" fill="#952225"/>
<path d="M122.747 28.9811C122.478 27.6912 121.143 21.925 123.836 22.5126C125.135 22.7958 122.332 27.9402 122.08 28.7211C121.807 29.5676 123.126 29.9553 123.398 29.1138C123.969 27.3464 127.572 21.9237 124.015 21.147C119.667 20.1987 120.959 27.1373 121.413 29.3183C121.594 30.1863 122.926 29.8481 122.747 28.9811Z" fill="#952225"/>
<path d="M159.097 32.1918C158.595 30.9201 157.229 25.3812 159.565 25.3141C161.479 25.2592 158.859 31.4067 158.472 32.2238C158.095 33.0181 159.265 33.7417 159.645 32.9415C160.489 31.1638 163.638 24.4732 159.846 23.9727C155.724 23.4273 156.927 30.406 157.765 32.529C158.084 33.3419 159.422 33.0158 159.097 32.1918Z" fill="#952225"/>
<path d="M197.157 35.9698C196.898 34.7621 194.958 28.9212 197.66 29.4429C199.246 29.7492 196.989 34.703 196.476 35.4494C195.972 36.182 197.149 36.8958 197.649 36.1671C198.788 34.5096 201.194 28.7298 197.844 28.0835C193.276 27.2026 195.377 34.2231 195.823 36.3069C196.009 37.175 197.342 36.8369 197.157 35.9698Z" fill="#952225"/>
<path d="M234.311 36.9581C233.418 35.5801 232.057 29.8124 234.819 29.8632C237.165 29.9074 234.146 35.7004 233.605 36.5973C233.146 37.3578 234.319 38.0746 234.778 37.315C236.035 35.2339 239.172 29.0472 234.848 28.4885C230.527 27.9309 231.803 35.6083 233.11 37.6261C233.588 38.3653 234.794 37.7034 234.311 36.9581Z" fill="#952225"/>
<path d="M273.296 36.1843C272.762 34.7578 271.308 29.7003 273.312 28.9031C275.474 28.0442 274.394 31.1862 274.064 32.0045C273.563 33.2493 272.697 34.4884 272.452 35.8216C272.292 36.6854 273.609 37.0851 273.77 36.2143C274.166 34.0581 278.749 27.5037 273.631 27.4665C269.648 27.438 271.175 34.4225 271.962 36.5225C272.27 37.3411 273.608 37.0151 273.296 36.1843Z" fill="#952225"/>
<path d="M312.433 34.7086C311.817 32.7123 310.182 30.1555 310.795 28.0129C311.007 27.2711 312.315 27.6916 312.618 28.1181C313.045 28.7171 312.843 29.7201 312.717 30.3776C312.461 31.7135 311.909 32.9813 311.413 34.2401C311.086 35.0665 312.409 35.4503 312.731 34.6328C313.436 32.8442 314.222 31.0063 314.225 29.0509C314.227 27.3186 312.75 25.8713 310.952 26.3068C307.373 27.174 310.484 33.0495 311.1 35.0458C311.36 35.8894 312.696 35.5573 312.433 34.7086Z" fill="#952225"/>
<path d="M349.674 30.1905C349.136 28.933 345.989 22.5097 348.635 22.271C351.507 22.0121 348.834 28.7506 348.686 30.1608C348.593 31.0431 349.968 31.0649 350.06 30.1896C350.317 27.7515 353.534 20.4572 348.358 20.924C343.906 21.3258 347.605 28.8319 348.472 30.8585C348.821 31.673 350.019 30.999 349.674 30.1905Z" fill="#952225"/>
<path d="M387.593 22.1101C386.977 21.205 386.528 20.1714 386.109 19.1654C385.741 18.2815 384.738 16.043 385.48 15.1503C386.066 14.4445 386.769 15.4354 386.922 15.9207C387.156 16.6648 387.134 17.4905 387.123 18.2624C387.103 19.5773 386.882 20.875 386.78 22.1841C386.71 23.0698 388.085 23.0926 388.154 22.2129C388.312 20.2068 389.609 12.0841 385.141 13.7699C382.025 14.9459 385.264 21.1271 386.391 22.7781C386.886 23.5046 388.094 22.8448 387.593 22.1101Z" fill="#952225"/>
<path d="M423.091 11.9813C421.819 10.9634 417.312 4.55363 420.946 4.51672C423.186 4.49362 421.908 11.1703 422.077 12.5552C422.184 13.4326 423.517 13.0874 423.41 12.218C423.101 9.69297 424.954 1.50999 419.621 3.36371C415.495 4.79762 420.573 11.7155 422.372 13.1545C423.065 13.7071 423.774 12.5267 423.091 11.9813Z" fill="#952225"/>
<path fill-rule="evenodd" clip-rule="evenodd" d="M277.667 31.3538C274.773 31.4062 271.88 31.4557 268.988 31.5101C265.657 31.5734 262.325 31.6006 258.996 31.7129C252.328 31.9343 245.662 32.2348 238.994 32.4252C237.155 32.4807 235.312 32.239 233.468 32.1844C227.586 32.0162 221.702 31.8479 215.821 31.7287C206.429 31.534 197.036 31.4642 187.648 31.1776C181.594 30.9917 175.53 30.8087 169.591 29.274C167.311 28.6871 164.91 28.5198 162.55 28.3043C152.748 27.4099 142.942 26.5283 133.132 25.7247C128.251 25.3254 123.353 25.1587 118.471 24.7804C116.558 24.6333 114.667 24.1986 112.766 23.8967C106.436 22.893 100.11 21.8793 93.7765 20.8984C92.6528 20.7269 91.5035 20.7298 90.3719 20.6021C87.4174 20.2651 84.4689 19.8713 81.5119 19.5553C77.6927 19.1452 73.8568 18.8598 70.045 18.3829C65.6106 17.8289 61.2004 17.0764 56.7676 16.4964C49.2694 15.5192 42.1054 13.0556 34.7044 11.5943C28.1809 10.3054 21.8371 8.08403 15.4362 6.19757C10.6417 4.78385 5.88179 3.25083 1.1058 1.76748C0.855368 1.69022 0.516987 1.65712 0.384661 1.48031C0.0450151 1.0301 -0.470582 0.480192 -0.424935 0.0200466C-0.346425 -0.767482 0.362316 -1.12973 1.16443 -0.887877C3.00917 -0.331121 4.8841 0.169255 6.66736 0.89176C15.7365 4.56249 25.2565 6.76435 34.6112 9.50086C36.5448 10.0665 38.5656 10.3359 40.5367 10.7792C45.7583 11.9548 50.9448 13.3218 56.2026 14.2931C61.0299 15.1854 65.9217 15.774 70.8071 16.2854C75.5238 16.7773 80.2922 16.7611 84.9041 18.104C85.8147 18.3691 86.8268 18.2773 87.7833 18.4084C92.1287 19.0075 96.4727 19.6256 100.817 20.2407C104.206 20.7198 107.619 21.0744 110.979 21.7099C120.7 23.5388 130.586 23.2828 140.375 24.183C147.811 24.8659 155.249 25.5988 162.646 26.593C177.047 28.526 191.526 29.1003 206.024 29.457C211.734 29.5967 217.444 29.8543 223.155 29.8769C231.061 29.9075 238.969 29.7841 246.876 29.6876C253.985 29.5985 261.098 29.5735 268.203 29.3122C279.083 28.909 289.959 28.3496 300.835 27.8133C306.623 27.5264 312.42 27.2958 318.191 26.7765C325.714 26.1019 333.237 25.3333 340.718 24.3007C349.067 23.1513 357.386 21.7492 365.687 20.2757C369.743 19.5555 373.751 18.5122 377.74 17.4635C386.393 15.1893 395.06 12.9443 403.649 10.4416C410.305 8.50058 416.831 6.12071 423.454 4.06398C426.379 3.15603 429.424 2.63969 432.371 1.79321C434.298 1.23745 436.147 0.408981 438.031 -0.295714C438.52 -0.478515 439.035 -0.842783 439.497 -0.785097C440.017 -0.721198 440.615 -0.366609 440.926 0.0500022C441.06 0.228854 440.672 1.0449 440.325 1.28769C439.542 1.83439 438.676 2.32537 437.774 2.62154C434.856 3.58364 431.911 4.45616 428.972 5.3478C419.061 8.35592 409.172 11.4305 399.232 14.331C393.764 15.9258 388.219 17.257 382.696 18.6556C378.702 19.6642 374.668 20.5189 370.686 21.5707C361.073 24.114 351.215 25.2558 341.41 26.6367C332.806 27.8458 324.147 28.7207 315.489 29.4655C308.684 30.0531 301.841 30.2008 295.018 30.574C290.634 30.8143 286.255 31.1216 281.872 31.3709C280.473 31.4486 279.07 31.4352 277.669 31.4649C277.668 31.4279 277.667 31.3908 277.667 31.3538Z" fill="#952225"/>
<path fill-rule="evenodd" clip-rule="evenodd" d="M15.391 14.6034C15.5366 13.6703 15.6558 12.8996 15.769 12.1748C17.36 12.0011 18.9681 12.3448 20.86 13.2287C20.7687 13.7679 20.6769 14.3321 20.5761 14.8931C20.4741 15.4651 20.1128 15.7626 19.5466 15.7197C18.1286 15.608 16.7404 15.3639 15.391 14.6034Z" fill="#952225" stroke="#952225" stroke-miterlimit="10" stroke-linecap="round" stroke-linejoin="round"/>
<path fill-rule="evenodd" clip-rule="evenodd" d="M15.0323 10.9312C17.4273 11.3404 19.7315 11.7368 21.9798 12.509C21.7443 13.9144 21.5375 15.1463 21.3215 16.4321C21.6211 16.6454 21.9018 16.8523 22.1917 17.0505C24.2272 18.4354 24.7675 20.4801 24.6724 22.7757C24.5423 25.9276 22.8909 28.4646 21.1759 30.9292C20.0023 32.616 18.7178 34.2475 17.3171 35.7475C16.2643 36.8747 15.0125 37.8517 13.7262 38.7119C12.727 39.3801 11.5135 39.0117 10.9975 37.9086C10.2229 36.255 9.62509 34.5221 8.97376 32.8121C8.76701 32.2726 8.6098 31.7082 8.46852 31.1472C8.14363 29.8491 7.75459 28.5576 7.55614 27.2402C7.33758 25.7843 7.30265 24.3002 7.18634 22.8335C6.99324 20.4009 8.26688 18.6172 9.94777 17.1601C10.9034 16.3299 12.1315 15.7625 13.318 15.2732C14.0656 14.9668 14.3453 14.5526 14.4566 13.8257C14.6015 12.8756 14.8282 11.9401 15.0323 10.9312ZM15.7867 15.8891C15.4636 15.7923 15.29 15.6776 15.1394 15.7035C12.9903 16.0665 11.1403 17.052 9.70425 18.6623C8.57754 19.926 8.01791 21.4306 8.11941 23.2221C8.26587 25.8277 8.48412 28.3969 9.40661 30.8657C9.67091 31.5704 9.71334 32.3625 9.99082 33.0585C10.5686 34.5069 11.1745 35.9509 11.8948 37.3313C12.3216 38.1534 13.0178 38.201 13.8328 37.6859C13.9818 37.591 14.1183 37.4709 14.2577 37.3608C17.4764 34.8276 19.8224 31.558 21.926 28.1113C22.8499 26.5993 23.5074 24.9597 23.7567 23.1345C24.0817 20.7498 22.8394 17.5031 19.5386 16.7418C19.5721 18.3909 19.5876 20.0406 19.6451 21.6861C19.7022 23.3557 19.8002 25.0241 19.8836 26.7723C19.1541 26.743 18.7613 26.5867 18.7588 25.8465C18.7562 25.3483 18.7206 24.7574 17.8527 24.6943C17.9087 25.0275 17.9577 25.2686 17.9866 25.5122C18.0353 25.9084 18.1458 26.3167 18.0938 26.6987C17.9895 27.4737 17.4356 27.9412 16.8707 27.8374C16.2729 27.7268 15.9119 27.1492 16.0431 26.3767C16.1242 25.8963 16.3239 25.4354 16.4558 24.9631C16.4752 24.8975 16.418 24.8103 16.3706 24.6352C16.1057 24.6767 15.8318 24.718 15.7585 24.7294C15.5729 25.5697 15.5029 26.2854 15.2415 26.9221C15.038 27.4219 14.4828 27.5663 13.9726 27.3346C13.4791 27.1112 13.4292 26.6301 13.5887 26.1803C13.7641 25.6839 14.0289 25.2163 14.2529 24.7409C13.1713 24.1871 13.0682 24.1929 12.4638 24.9674C12.21 25.2922 12.0081 25.6671 11.3467 25.2491C11.9272 23.6539 12.9232 22.2305 13.6408 20.6812C14.3657 19.12 15.0499 17.54 15.7867 15.8891ZM18.3747 16.4884C17.7995 16.3473 17.2622 16.215 16.7039 16.0763C15.527 18.5912 14.4097 20.9804 13.2631 23.4319C15.11 24.0777 16.8571 24.1873 18.6555 23.8049C18.6279 21.3518 18.8433 18.9457 18.3747 16.4884ZM15.3905 14.6035C16.7399 15.3639 18.1281 15.608 19.547 15.7198C20.1123 15.7626 20.4745 15.4662 20.5766 14.8932C20.6773 14.3322 20.7692 13.7679 20.8605 13.2287C18.9686 12.3449 17.3604 12.0012 15.7694 12.1749C15.6542 12.8996 15.5361 13.6703 15.3905 14.6035ZM17.0145 25.5089C16.6326 26.214 16.4676 26.6907 17.1134 27.1363C17.6045 26.6135 17.5008 26.1662 17.0145 25.5089ZM14.1773 26.4907C14.8508 26.1847 14.8508 26.1847 14.6089 25.3195C14.4328 25.8009 14.3045 26.1453 14.1773 26.4907Z" fill="#952225"/>
<path fill-rule="evenodd" clip-rule="evenodd" d="M124.979 30.1384C124.834 31.1215 124.722 31.8894 124.594 32.7639C122.985 32.6581 121.535 32.5628 119.957 32.4617C119.941 32.2093 119.913 31.8746 119.899 31.5383C119.825 29.8253 119.867 29.7872 121.521 29.9099C122.582 29.9891 123.647 30.0505 124.979 30.1384Z" fill="#952225" stroke="#952225" stroke-miterlimit="10" stroke-linecap="round" stroke-linejoin="round"/>
<path fill-rule="evenodd" clip-rule="evenodd" d="M125.721 32.9863C126.444 33.5036 127.01 33.9435 127.606 34.3311C129.783 35.744 130.335 37.866 130.228 40.2763C130.12 42.7296 129.484 45.0607 128.319 47.1988C127.021 49.5842 125.921 52.0907 124.06 54.1542C123.415 54.8688 123.037 55.8051 122.122 56.307C120.847 57.0075 119.634 56.9251 118.788 55.7411C117.574 54.0413 116.467 52.2557 115.418 50.4463C114.152 48.2674 113.674 45.7938 112.958 43.4073C111.909 39.9236 114.126 34.7479 117.859 33.4898C118.532 33.2618 118.788 32.8701 118.814 32.2265C118.843 31.557 118.853 30.883 118.917 30.2162C119.019 29.1571 119.183 29.0025 120.249 29.0248C121.848 29.0563 123.446 29.1208 125.045 29.1913C125.664 29.2183 125.924 29.5538 125.893 30.2933C125.853 31.2277 125.775 32.1572 125.721 32.9863ZM120.324 33.5084C119.853 33.6766 119.596 33.7432 119.362 33.8533C118.714 34.1578 118.053 34.447 117.436 34.8052C114.446 36.542 113.212 39.7978 113.764 42.525C114.021 43.7946 114.419 45.0332 114.74 46.2882C115.532 49.3895 117.314 51.9804 119.116 54.5317C120.299 56.2088 121.53 56.0806 122.79 54.4606C123.09 54.0738 123.285 53.6018 123.601 53.2293C126.14 50.2529 127.679 46.7503 128.835 43.0727C129.401 41.2692 129.526 39.4144 128.923 37.5443C128.316 35.6622 126.238 33.9654 124.274 33.8412C124.734 36.4944 125.192 39.1666 125.66 41.833C125.818 42.7335 125.83 42.7317 124.802 43.0362C124.116 41.7306 124.116 41.7306 123.515 41.9881C123.599 42.713 123.76 43.4115 123.743 44.1063C123.723 44.8661 123.337 45.1631 122.639 45.1714C122.054 45.1772 121.781 44.8894 121.788 44.0834C121.794 43.4353 121.922 42.7869 122.001 42.0774C121.7 42.0941 121.462 42.1091 121.315 42.116C121.258 42.978 121.295 43.741 121.137 44.4588C120.999 45.0851 120.432 45.3582 119.896 45.189C119.321 45.0089 119.204 44.5323 119.325 44.0088C119.476 43.3658 119.681 42.7369 119.87 42.0768C119.231 41.7603 118.766 41.8936 118.328 42.4296C118.179 42.6105 117.825 42.618 117.564 42.7046C117.541 42.4621 117.434 42.1878 117.506 41.9782C118.354 39.5344 119.231 37.1013 120.088 34.6597C120.188 34.3707 120.214 34.0592 120.324 33.5084ZM124.552 40.8175C124.186 38.7934 123.862 36.7752 123.442 34.7729C123.157 33.4207 122.982 33.363 121.357 33.565C120.549 35.9876 119.727 38.456 118.908 40.9104C120.843 41.7611 122.595 41.2277 124.552 40.8175ZM124.979 30.1381C123.648 30.0492 122.584 29.9879 121.521 29.9097C119.867 29.787 119.826 29.8251 119.9 31.538C119.914 31.8744 119.942 32.2091 119.957 32.4615C121.535 32.5625 122.984 32.6579 124.594 32.7636C124.722 31.8891 124.833 31.1213 124.979 30.1381ZM122.736 42.6979C122.325 43.3044 122.255 43.8721 122.528 44.565C123.312 43.7512 123.312 43.7512 122.736 42.6979ZM120.497 43.0801C120.259 43.5072 119.626 43.861 120.145 44.5381C120.785 44.1244 120.797 43.6395 120.497 43.0801Z" fill="#952225"/>
<path fill-rule="evenodd" clip-rule="evenodd" d="M89.04 28.3848C89.1865 27.4517 89.3087 26.681 89.423 25.9543C87.9613 25.3025 86.3253 25.1392 84.2523 25.4049C84.175 25.9444 84.0892 26.5087 84.0143 27.0763C83.9372 27.6528 84.189 28.0451 84.7424 28.1757C86.1278 28.5058 87.5231 28.6951 89.04 28.3848Z" fill="#952225" stroke="#952225" stroke-miterlimit="10" stroke-linecap="round" stroke-linejoin="round"/>
<path fill-rule="evenodd" clip-rule="evenodd" d="M90.1693 27.9283C90.0531 28.653 90.1931 29.1321 90.8113 29.6551C91.7922 30.4829 92.7872 31.3979 93.4427 32.4789C94.5971 34.3825 95.2666 36.4689 94.3381 38.726C93.7784 40.0896 93.294 41.4917 92.6402 42.8083C92.048 44.0052 91.2826 45.1144 90.5767 46.2499C90.2703 46.7436 89.95 47.2309 89.5865 47.6824C88.4453 49.1098 87.3463 50.5791 86.103 51.9174C85.2742 52.8082 84.0083 52.7897 83.2589 51.8478C82.297 50.6364 81.4044 49.3224 80.7454 47.9273C79.8691 46.0706 79.1457 44.125 78.5437 42.159C77.6646 39.2899 76.8676 36.3706 77.7065 33.3295C78.316 31.1148 79.4556 29.3322 81.8177 28.6356C82.1528 28.5376 82.4832 28.4244 82.8347 28.3128C83.0227 27.0234 83.2006 25.7869 83.4062 24.3769C85.7837 24.3307 88.0974 24.6572 90.5047 24.9987C90.3913 26.0205 90.3202 26.9822 90.1693 27.9283ZM88.8501 34.7062C89.0607 36.4 89.574 38.0581 89.6395 39.7568C88.8812 39.952 88.803 39.5342 88.6621 39.1462C88.3233 38.2229 88.2261 38.1859 87.0267 38.3838C87.0947 38.9063 87.2037 39.4327 87.2197 39.9582C87.2337 40.4356 87.0394 40.8786 86.502 40.9413C85.9445 41.0057 85.4608 40.6985 85.4181 40.1605C85.3655 39.4742 85.5183 38.7693 85.5972 37.9137C85.5319 37.8814 85.2825 37.7551 85.0419 37.6361C84.9437 37.786 84.8633 37.8534 84.8608 37.9233C84.8426 38.413 84.8921 38.9122 84.822 39.3938C84.7098 40.1687 84.1914 40.6109 83.5879 40.5322C83.0174 40.4573 82.6341 39.8441 82.7703 39.0748C82.8382 38.6951 83.0687 38.3409 83.2353 37.9793C83.337 37.7544 83.4585 37.5409 83.6128 37.241C82.767 37.0353 82.5524 37.5879 82.3984 38.0618C82.1686 38.7661 81.7479 38.7943 81.0438 38.5995C81.6583 36.96 82.2611 35.4013 82.8271 33.8288C83.3838 32.2772 83.9026 30.7137 84.4385 29.1506C81.0626 28.8708 78.8873 31.5818 78.4687 33.9486C78.1495 35.7663 78.2737 37.5273 78.6897 39.2494C79.6407 43.1742 80.8748 47.0038 83.1662 50.3986C83.2651 50.5477 83.3579 50.7037 83.471 50.8391C84.0907 51.5792 84.7674 51.7434 85.4251 51.095C86.5333 50.001 87.5505 48.809 88.5439 47.6066C89.0221 47.0265 89.3016 46.2882 89.7701 45.6978C91.4048 43.6276 92.3948 41.2498 93.3321 38.8119C93.9753 37.136 93.9029 35.5342 93.2161 33.9864C92.3413 32.0127 90.8804 30.5088 88.9459 29.509C88.8094 29.4382 88.6082 29.492 88.2723 29.4849C88.4687 31.2834 88.6368 32.9983 88.8501 34.7062ZM83.1206 36.1495C84.7148 37.0621 86.4113 37.4897 88.3687 37.4397C88.0259 34.7559 87.6906 32.1393 87.3391 29.3873C86.7658 29.3483 86.2145 29.3088 85.6223 29.2674C84.426 31.4668 83.8976 33.8192 83.1206 36.1495ZM89.4235 25.9552C87.9618 25.3035 86.3259 25.1402 84.2529 25.4059C84.1755 25.9454 84.0897 26.5097 84.0148 27.0772C83.9377 27.6537 84.1895 28.0461 84.7429 28.1767C86.1283 28.5068 87.5237 28.6961 89.0405 28.3858C89.1871 27.4526 89.3093 26.681 89.4235 25.9552ZM83.5704 39.7927C84.3224 39.5624 84.3119 39.0601 84.1624 38.2698C83.4983 38.748 83.2629 39.1431 83.5704 39.7927ZM86.5093 38.826C86.0145 39.5759 86.0145 39.5759 86.5642 40.0735C86.5479 39.7061 86.5316 39.3366 86.5093 38.826Z" fill="#952225"/>
<path fill-rule="evenodd" clip-rule="evenodd" d="M49.7725 20.8332C49.7047 21.824 49.6514 22.5991 49.591 23.48C51.1863 23.7184 52.6231 23.9346 54.1846 24.1683C54.2536 23.9277 54.3514 23.6057 54.4372 23.2804C54.875 21.6232 54.841 21.5775 53.1995 21.3441C52.1454 21.195 51.0926 21.0309 49.7725 20.8332Z" fill="#952225" stroke="#952225" stroke-miterlimit="10" stroke-linecap="round" stroke-linejoin="round"/>
<path fill-rule="evenodd" clip-rule="evenodd" d="M48.8465 20.7896C48.9738 20.0601 49.2995 19.7889 49.9095 19.8937C51.4851 20.1647 53.0617 20.4418 54.6306 20.7488C55.6775 20.9547 55.8046 21.1424 55.6785 22.199C55.5985 22.8635 55.4657 23.5228 55.3508 24.1846C55.2405 24.8174 55.4054 25.256 56.0159 25.6208C59.3973 27.6431 60.4627 33.1726 58.6976 36.3554C57.4898 38.5335 56.497 40.8493 54.7957 42.711C53.3861 44.2539 51.9251 45.7646 50.3774 47.1665C49.2987 48.1441 48.0951 47.9668 46.9979 47.0117C46.2111 46.327 46.0419 45.3313 45.5633 44.4951C44.1835 42.0846 43.6406 39.3987 42.879 36.7922C42.1958 34.4574 42.0713 32.0422 42.4861 29.6244C42.892 27.2453 43.8851 25.2897 46.3119 24.3693C46.9773 24.1192 47.6229 23.8107 48.4395 23.4567C48.5647 22.6381 48.6862 21.7105 48.8465 20.7896ZM53.5893 26.2892C53.9077 28.8554 54.248 31.4191 54.5553 33.9891C54.5817 34.2107 54.4195 34.4533 54.3456 34.6878C54.1095 34.5459 53.7642 34.4606 53.6585 34.2553C53.3454 33.6377 52.9171 33.4097 52.2263 33.5822C52.271 34.2673 52.3382 34.9269 52.3473 35.5872C52.3562 36.1205 52.1389 36.563 51.5395 36.6195C50.9784 36.6708 50.4844 36.2833 50.4827 35.6442C50.4802 34.9079 50.6767 34.1689 50.8056 33.3144C50.6634 33.2764 50.4347 33.2106 50.1423 33.1305C50.0704 33.8421 50.0576 34.502 49.9252 35.1384C49.7597 35.9261 49.4309 36.1502 48.8615 36.0203C48.1827 35.861 47.8674 35.4894 48.01 34.7442C48.1404 34.0608 48.4471 33.411 48.6836 32.7208C48.1504 32.3426 48.1504 32.3426 47.2024 33.475C46.265 32.9592 46.274 32.9614 46.6198 32.1145C47.6435 29.6084 48.6604 27.0951 49.6738 24.6008C47.7276 24.306 45.3366 25.5202 44.3446 27.2318C43.3568 28.9304 43.0842 30.7701 43.2548 32.6511C43.6025 36.4913 44.3632 40.239 46.2103 43.6905C46.4404 44.1194 46.5288 44.6233 46.7416 45.0649C47.6271 46.9138 48.8032 47.3015 50.3156 45.9149C52.6203 43.8027 54.9119 41.6512 56.3462 38.7896C56.9256 37.6295 57.5773 36.5039 58.0982 35.3196C59.2178 32.7745 58.7048 29.3269 56.1521 26.996C55.6251 26.5138 55.0397 26.0935 54.4738 25.6555C54.266 25.4992 54.0315 25.3782 53.6049 25.1152C53.5942 25.6771 53.5527 25.9873 53.5893 26.2892ZM53.4131 32.6479C53.1359 30.0765 52.856 27.4901 52.5821 24.9508C51.0372 24.4083 50.8547 24.4285 50.2892 25.6899C49.4529 27.5538 48.7069 29.4586 47.918 31.3565C49.7423 32.1739 51.3418 33.0696 53.4131 32.6479ZM49.5903 23.4798C51.1856 23.7183 52.6224 23.9344 54.1839 24.1682C54.2529 23.9276 54.3507 23.6055 54.4365 23.2802C54.8743 21.6231 54.8403 21.5773 53.1988 21.3439C52.1437 21.1948 51.0919 21.0297 49.7708 20.833C49.704 21.8238 49.6508 22.5979 49.5903 23.4798ZM49.1005 35.4512C49.5146 34.8307 49.5665 34.2617 49.2946 33.5838C48.5075 34.4905 48.5075 34.4905 49.1005 35.4512ZM51.4339 35.9311C52.0856 35.3787 51.5405 34.9001 51.3994 34.4301C50.9881 34.9136 50.8971 35.3908 51.4339 35.9311Z" fill="#952225"/>
<path fill-rule="evenodd" clip-rule="evenodd" d="M156.186 35.7351C156.183 34.7918 156.183 34.0117 156.183 33.2775C157.728 32.8608 159.373 32.9532 161.376 33.5343C161.37 34.0813 161.368 34.6514 161.354 35.2242C161.34 35.8041 161.03 36.1557 160.464 36.1978C159.045 36.3061 157.636 36.2786 156.186 35.7351Z" fill="#952225" stroke="#952225" stroke-miterlimit="10" stroke-linecap="round" stroke-linejoin="round"/>
<path fill-rule="evenodd" clip-rule="evenodd" d="M155.265 32.1598C157.694 32.1987 160.034 32.2347 162.373 32.6508C162.357 34.0768 162.342 35.3247 162.327 36.6277C162.657 36.7926 162.966 36.9542 163.282 37.1048C165.507 38.1576 166.355 40.0958 166.615 42.3788C166.972 45.5119 165.732 48.2736 164.416 50.9736C163.518 52.8202 162.499 54.6293 161.346 56.3305C160.48 57.6036 159.396 58.7652 158.256 59.8115C157.37 60.6252 156.115 60.4488 155.436 59.4364C154.415 57.9267 153.557 56.3024 152.65 54.715C152.364 54.2129 152.121 53.6827 151.895 53.1479C151.373 51.9157 150.79 50.6982 150.39 49.4275C149.95 48.023 149.687 46.5622 149.345 45.1297C148.78 42.7583 149.763 40.7995 151.201 39.0992C152.016 38.1341 153.141 37.3815 154.238 36.7173C154.929 36.2977 155.142 35.8451 155.139 35.1129C155.139 34.1497 155.217 33.1901 155.265 32.1598ZM156.774 36.9425C156.44 36.8985 156.251 36.8125 156.105 36.8624C154.039 37.5513 152.362 38.8095 151.192 40.6214C150.272 42.0454 149.951 43.616 150.328 45.3723C150.875 47.9253 151.486 50.4287 152.779 52.7283C153.149 53.3822 153.312 54.1577 153.693 54.8029C154.489 56.1438 155.309 57.4803 156.234 58.7319C156.782 59.4766 157.478 59.4182 158.203 58.7852C158.338 58.667 158.453 58.5284 158.573 58.3979C161.364 55.3986 163.177 51.8048 164.725 48.0774C165.404 46.4393 165.8 44.7202 165.765 42.8751C165.719 40.4716 163.991 37.4557 160.612 37.2109C160.9 38.8343 161.168 40.4613 161.48 42.0802C161.793 43.7221 162.148 45.3549 162.499 47.0676C161.774 47.1524 161.362 47.0598 161.245 46.3282C161.166 45.8344 161.04 45.2586 160.172 45.3285C160.279 45.6488 160.364 45.8796 160.431 46.1151C160.539 46.4984 160.712 46.8851 160.72 47.2714C160.734 48.0528 160.26 48.598 159.687 48.584C159.079 48.5673 158.634 48.0499 158.644 47.2689C158.651 46.7789 158.776 46.2945 158.834 45.8076C158.841 45.7397 158.773 45.6603 158.699 45.4957C158.443 45.5763 158.178 45.6608 158.107 45.6843C158.052 46.5424 158.094 47.2604 157.935 47.9312C157.811 48.4557 157.284 48.6837 156.744 48.5334C156.224 48.3875 156.1 47.9198 156.188 47.4535C156.285 46.9344 156.474 46.4323 156.622 45.9273C155.468 45.546 155.366 45.5689 154.887 46.426C154.688 46.7869 154.546 47.1891 153.828 46.8769C154.154 45.2114 154.918 43.6511 155.39 42.0106C155.869 40.3553 156.301 38.689 156.774 36.9425ZM159.425 37.137C158.834 37.0877 158.283 37.0391 157.71 36.9901C156.935 39.6545 156.199 42.1876 155.444 44.7863C157.37 45.1417 159.112 44.9782 160.828 44.325C160.422 41.903 160.267 39.4942 159.425 37.137ZM156.185 35.7349C157.635 36.2794 159.045 36.3069 160.464 36.1976C161.03 36.1544 161.34 35.8039 161.353 35.224C161.367 34.6522 161.37 34.0811 161.376 33.5341C159.371 32.953 157.728 32.8596 156.183 33.2773C156.182 34.0114 156.183 34.7906 156.185 35.7349ZM159.471 46.259C159.202 47.0155 159.112 47.5118 159.819 47.8547C160.223 47.259 160.053 46.8333 159.471 46.259ZM156.819 47.6668C157.437 47.2616 157.437 47.2616 157.066 46.4427C156.964 46.9467 156.89 47.3062 156.819 47.6668Z" fill="#952225"/>
<path fill-rule="evenodd" clip-rule="evenodd" d="M236.629 38.0559C236.534 39.0442 236.459 39.8187 236.375 40.6972C234.763 40.6714 233.309 40.647 231.729 40.6219C231.702 40.3712 231.657 40.0382 231.626 39.7035C231.467 37.9968 231.507 37.9566 233.165 37.9993C234.229 38.0236 235.295 38.034 236.629 38.0559Z" fill="#952225" stroke="#952225" stroke-miterlimit="10" stroke-linecap="round" stroke-linejoin="round"/>
<path fill-rule="evenodd" clip-rule="evenodd" d="M237.511 40.8619C238.259 41.3447 238.845 41.7551 239.459 42.114C241.705 43.4173 242.361 45.5115 242.371 47.9243C242.383 50.3761 241.863 52.7387 240.805 54.932C239.626 57.3769 238.65 59.935 236.893 62.0856C236.283 62.833 235.952 63.7853 235.063 64.3328C233.824 65.092 232.608 65.0726 231.705 63.9304C230.408 62.2939 229.215 60.5645 228.078 58.8103C226.708 56.6952 226.108 54.2481 225.274 51.8981C224.057 48.4699 226.018 43.1908 229.684 41.7522C230.344 41.493 230.58 41.0868 230.576 40.4426C230.57 39.7723 230.548 39.0997 230.579 38.4322C230.627 37.37 230.784 37.2063 231.849 37.1756C233.449 37.1291 235.047 37.1155 236.648 37.106C237.267 37.103 237.543 37.4239 237.55 38.1662C237.556 39.0995 237.524 40.034 237.511 40.8619ZM232.147 41.6508C231.682 41.8401 231.431 41.9209 231.2 42.0431C230.569 42.3819 229.923 42.7024 229.324 43.088C226.423 44.9686 225.351 48.2829 226.037 50.9799C226.356 52.2348 226.813 53.4517 227.195 54.6909C228.141 57.7504 230.048 60.2499 231.971 62.7107C233.236 64.3275 234.46 64.1381 235.638 62.4554C235.918 62.0552 236.089 61.5737 236.387 61.1899C238.776 58.0892 240.141 54.517 241.115 50.7866C241.594 48.9582 241.628 47.0995 240.932 45.2606C240.234 43.4095 238.074 41.8169 236.107 41.7897C236.698 44.4177 237.286 47.0636 237.884 49.7037C238.086 50.5951 238.096 50.5953 237.087 50.9493C236.338 49.6773 236.338 49.6773 235.75 49.9641C235.87 50.6837 236.065 51.375 236.082 52.0695C236.1 52.83 235.729 53.1443 235.033 53.1867C234.449 53.2235 234.162 52.9475 234.128 52.1426C234.102 51.4959 234.2 50.8408 234.243 50.1285C233.943 50.1613 233.705 50.1873 233.561 50.2003C233.546 51.0651 233.619 51.8248 233.496 52.5514C233.389 53.1823 232.837 53.4828 232.293 53.3414C231.711 53.1882 231.57 52.7171 231.666 52.189C231.783 51.5393 231.959 50.9019 232.114 50.233C231.461 49.9482 231.002 50.1027 230.591 50.6602C230.452 50.8473 230.097 50.8749 229.842 50.9726C229.807 50.7318 229.686 50.4632 229.749 50.2494C230.473 47.7681 231.23 45.2934 231.966 42.8142C232.053 42.522 232.063 42.2071 232.147 41.6508ZM236.728 48.7423C236.262 46.7401 235.839 44.7388 235.322 42.7625C234.972 41.4249 234.793 41.3761 233.182 41.6565C232.493 44.1176 231.792 46.6224 231.096 49.1124C233.07 49.8669 234.795 49.2509 236.728 48.7423ZM236.629 38.0559C235.295 38.0339 234.23 38.0236 233.164 37.9993C231.507 37.9566 231.467 37.9967 231.625 39.7034C231.656 40.0381 231.701 40.3712 231.729 40.6218C233.308 40.6469 234.762 40.6713 236.374 40.6971C236.459 39.8187 236.533 39.0441 236.629 38.0559ZM235.006 50.7107C234.626 51.3358 234.584 51.9051 234.891 52.5856C235.634 51.736 235.634 51.736 235.006 50.7107ZM232.79 51.2013C232.572 51.6419 231.957 52.0241 232.509 52.6758C233.127 52.2306 233.116 51.7453 232.79 51.2013Z" fill="#952225"/>
<path fill-rule="evenodd" clip-rule="evenodd" d="M275.521 39.7408C275.598 38.8002 275.662 38.0224 275.722 37.2915C274.216 36.7498 272.571 36.7084 270.524 37.1236C270.488 37.668 270.444 38.2392 270.41 38.8096C270.377 39.391 270.659 39.764 271.218 39.8517C272.623 40.0782 274.029 40.1647 275.521 39.7408Z" fill="#952225" stroke="#952225" stroke-miterlimit="10" stroke-linecap="round" stroke-linejoin="round"/>
<path fill-rule="evenodd" clip-rule="evenodd" d="M276.612 39.2026C276.55 39.9335 276.725 40.4023 277.381 40.8751C278.42 41.629 279.48 42.4684 280.214 43.499C281.508 45.3095 282.329 47.3411 281.572 49.6598C281.114 51.0605 280.734 52.4949 280.179 53.8585C279.677 55.0923 278.996 56.2583 278.377 57.4426C278.108 57.9591 277.823 58.4682 277.496 58.9465C276.462 60.4541 275.475 62.0008 274.336 63.4243C273.576 64.3775 272.31 64.4521 271.493 63.5678C270.445 62.4306 269.457 61.1866 268.698 59.8444C267.686 58.0568 266.82 56.1713 266.074 54.2572C264.984 51.4608 263.973 48.609 264.584 45.5131C265.029 43.2579 266.031 41.3955 268.336 40.5256C268.663 40.4014 268.985 40.2661 269.326 40.1282C269.417 38.8288 269.504 37.5824 269.604 36.1602C271.971 35.9367 274.303 36.0926 276.728 36.2524C276.692 37.2839 276.692 38.2471 276.612 39.2026ZM275.799 46.0601C276.136 47.7335 276.769 49.3511 276.961 51.0385C276.219 51.291 276.111 50.8777 275.941 50.503C275.533 49.6053 275.435 49.5762 274.255 49.8626C274.36 50.3789 274.507 50.8951 274.562 51.4204C274.612 51.8925 274.451 52.3502 273.919 52.4521C273.368 52.5556 272.863 52.287 272.782 51.7541C272.678 51.0718 272.779 50.3608 272.793 49.4999C272.726 49.4715 272.468 49.3661 272.219 49.2648C272.133 49.423 272.058 49.4935 272.061 49.5646C272.079 50.0551 272.165 50.549 272.132 51.0354C272.078 51.8154 271.591 52.2953 270.986 52.2617C270.411 52.2296 269.983 51.6465 270.063 50.869C270.102 50.4827 270.306 50.1139 270.445 49.7398C270.53 49.5115 270.635 49.2867 270.768 48.9754C269.909 48.8364 269.736 49.4009 269.616 49.8854C269.44 50.6049 269.023 50.6642 268.306 50.5221C268.796 48.841 269.283 47.2429 269.729 45.6349C270.17 44.0458 270.57 42.4468 270.99 40.8502C267.602 40.8203 265.634 43.6837 265.393 46.0782C265.209 47.9127 265.462 49.6584 266.007 51.3462C267.245 55.1889 268.76 58.9175 271.296 62.1333C271.406 62.2746 271.51 62.4209 271.635 62.5485C272.306 63.2387 272.994 63.3561 273.603 62.6577C274.625 61.4859 275.551 60.221 276.453 58.9486C276.887 58.3366 277.112 57.5771 277.533 56.9538C279.01 54.7692 279.821 52.3247 280.576 49.8249C281.093 48.1054 280.902 46.5131 280.104 45.019C279.084 43.1182 277.516 41.7281 275.511 40.8709C275.372 40.811 275.175 40.8819 274.839 40.8978C275.166 42.6751 275.461 44.3707 275.799 46.0601ZM270.192 47.9231C271.85 48.714 273.573 49.0161 275.521 48.8199C274.981 46.171 274.452 43.5853 273.898 40.8661C273.323 40.8701 272.771 40.8715 272.178 40.8731C271.148 43.155 270.795 45.5412 270.192 47.9231ZM275.722 37.2906C274.216 36.7489 272.572 36.7075 270.525 37.1227C270.488 37.667 270.444 38.2382 270.41 38.8086C270.377 39.3901 270.66 39.7631 271.219 39.8508C272.623 40.0773 274.03 40.1637 275.521 39.7399C275.598 38.8003 275.662 38.0225 275.722 37.2906ZM270.911 51.5219C271.644 51.2402 271.595 50.7371 271.387 49.9636C270.761 50.4866 270.556 50.8984 270.911 51.5219ZM273.77 50.3405C273.333 51.1266 273.333 51.1266 273.918 51.5819C273.873 51.2159 273.83 50.8499 273.77 50.3405Z" fill="#952225"/>
<path fill-rule="evenodd" clip-rule="evenodd" d="M194.564 36.4839C194.58 37.4764 194.591 38.2528 194.605 39.1393C196.213 39.243 197.662 39.3384 199.24 39.4415C199.289 39.1944 199.36 38.8658 199.419 38.537C199.716 36.8478 199.679 36.8061 198.023 36.7084C196.959 36.6491 195.897 36.5728 194.564 36.4839Z" fill="#952225" stroke="#952225" stroke-miterlimit="10" stroke-linecap="round" stroke-linejoin="round"/>
<path fill-rule="evenodd" clip-rule="evenodd" d="M193.639 36.5193C193.705 35.7825 194.007 35.4838 194.623 35.5377C196.217 35.6781 197.811 35.8215 199.401 35.9968C200.461 36.115 200.602 36.292 200.564 37.3535C200.54 38.0231 200.462 38.6917 200.404 39.3586C200.346 40.0025 200.548 40.4248 201.186 40.7363C204.723 42.4707 206.245 47.8928 204.752 51.2103C203.729 53.4823 202.931 55.8721 201.392 57.8683C200.116 59.524 198.786 61.1505 197.36 62.6759C196.366 63.7394 195.153 63.6629 193.979 62.8022C193.139 62.1864 192.886 61.2069 192.34 60.4143C190.766 58.1269 190 55.4972 189.024 52.9622C188.149 50.6914 187.824 48.2951 188.036 45.852C188.243 43.4478 189.069 41.4157 191.412 40.2985C192.054 39.9918 192.671 39.6317 193.456 39.212C193.511 38.384 193.555 37.4487 193.639 36.5193ZM198.823 41.603C199.354 44.1356 199.906 46.6618 200.427 49.1972C200.472 49.4152 200.331 49.6723 200.276 49.9092C200.029 49.791 199.678 49.7347 199.554 49.537C199.19 48.9493 198.745 48.7559 198.072 48.9878C198.171 49.6661 198.294 50.3148 198.358 50.9733C198.412 51.5055 198.232 51.9629 197.639 52.0695C197.085 52.1669 196.558 51.8198 196.504 51.1845C196.442 50.451 196.576 49.7017 196.632 48.8367C196.489 48.8107 196.255 48.7657 195.957 48.7095C195.945 49.4244 195.987 50.0834 195.908 50.7269C195.808 51.526 195.5 51.7776 194.921 51.6945C194.231 51.596 193.885 51.2487 193.967 50.4962C194.041 49.8046 194.29 49.1297 194.47 48.4223C193.906 48.0904 193.906 48.0904 193.056 49.2949C192.079 48.8603 192.087 48.8625 192.361 47.989C193.174 45.4055 193.977 42.8187 194.779 40.249C192.815 40.1138 190.533 41.5253 189.688 43.313C188.845 45.0888 188.727 46.9437 189.052 48.8049C189.718 52.6027 190.788 56.2749 192.916 59.5602C193.181 59.9678 193.312 60.4637 193.559 60.884C194.596 62.6561 195.8 62.9433 197.193 61.4372C199.313 59.1391 201.419 56.8056 202.609 53.8319C203.09 52.6307 203.646 51.4531 204.066 50.2307C204.97 47.599 204.173 44.2086 201.435 42.0978C200.869 41.6598 200.251 41.2898 199.649 40.9021C199.429 40.7605 199.184 40.6623 198.74 40.434C198.777 40.9949 198.762 41.3066 198.823 41.603ZM199.178 47.9558C198.686 45.4159 198.193 42.864 197.708 40.3553C196.123 39.943 195.942 39.9763 195.484 41.282C194.806 43.2092 194.22 45.1703 193.593 47.1266C195.478 47.7903 197.148 48.5484 199.178 47.9558ZM194.604 39.1391C196.212 39.2428 197.662 39.3381 199.239 39.4412C199.288 39.1942 199.359 38.8656 199.418 38.5367C199.715 36.8476 199.678 36.8058 198.022 36.7081C196.959 36.6488 195.896 36.5716 194.564 36.4836C194.58 37.4762 194.591 38.2526 194.604 39.1391ZM195.112 51.1073C195.472 50.4547 195.477 49.8847 195.149 49.2287C194.44 50.1991 194.44 50.1991 195.112 51.1073ZM197.477 51.3939C198.081 50.7874 197.498 50.3551 197.318 49.9003C196.948 50.4156 196.896 50.8967 197.477 51.3939Z" fill="#952225"/>
<path fill-rule="evenodd" clip-rule="evenodd" d="M309.418 38.391C309.351 37.4484 309.297 36.6711 309.244 35.9398C310.757 35.4144 312.402 35.3948 314.443 35.8357C314.475 36.3815 314.511 36.9523 314.538 37.524C314.564 38.1027 314.278 38.4738 313.716 38.556C312.309 38.7616 310.901 38.8321 309.418 38.391Z" fill="#952225" stroke="#952225" stroke-miterlimit="10" stroke-linecap="round" stroke-linejoin="round"/>
<path fill-rule="evenodd" clip-rule="evenodd" d="M308.25 34.8889C310.678 34.7577 313.012 34.6335 315.377 34.8841C315.459 36.3081 315.531 37.5539 315.606 38.8548C315.947 38.9969 316.267 39.1387 316.592 39.2645C318.885 40.1627 319.865 42.0367 320.283 44.2959C320.856 47.3986 319.81 50.2383 318.685 53.0224C317.915 54.9267 317.026 56.8025 315.994 58.5762C315.217 59.9103 314.214 61.1415 313.152 62.2655C312.324 63.1394 311.061 63.0479 310.312 62.087C309.19 60.6492 308.22 59.0915 307.206 57.57C306.886 57.0881 306.606 56.5752 306.345 56.0576C305.739 54.8647 305.072 53.6924 304.586 52.45C304.05 51.0814 303.686 49.6435 303.245 48.237C302.517 45.9082 303.362 43.8875 304.678 42.0916C305.425 41.072 306.496 40.2443 307.545 39.5051C308.205 39.0388 308.385 38.5715 308.333 37.8392C308.263 36.8826 308.274 35.9196 308.25 34.8889ZM310.088 39.5554C309.75 39.5323 309.556 39.4622 309.414 39.5193C307.401 40.3503 305.815 41.7214 304.773 43.6109C303.955 45.0941 303.743 46.6861 304.241 48.4119C304.963 50.9175 305.745 53.3744 307.194 55.5773C307.609 56.2071 307.824 56.9698 308.252 57.5839C309.137 58.8687 310.049 60.1431 311.058 61.3285C311.656 62.0321 312.347 61.9256 313.026 61.2427C313.152 61.1163 313.258 60.9724 313.369 60.8337C315.945 57.647 317.505 53.9369 318.79 50.111C319.355 48.4294 319.63 46.6868 319.467 44.849C319.255 42.455 317.321 39.5649 313.934 39.5539C314.334 41.1567 314.714 42.761 315.136 44.3531C315.564 45.9674 316.03 47.5736 316.5 49.2578C315.782 49.3908 315.364 49.328 315.198 48.6054C315.085 48.1209 314.919 47.5523 314.059 47.6833C314.188 47.9971 314.289 48.2213 314.372 48.4521C314.507 48.826 314.706 49.1992 314.742 49.585C314.811 50.3617 314.375 50.9406 313.8 50.9656C313.195 50.9919 312.714 50.5078 312.671 49.7247C312.643 49.238 312.735 48.7458 312.758 48.2552C312.762 48.1873 312.688 48.1127 312.603 47.9529C312.353 48.0527 312.096 48.1553 312.027 48.1809C312.031 49.0422 312.123 49.7553 312.011 50.4351C311.923 50.9663 311.414 51.2317 310.865 51.1182C310.335 51.0091 310.179 50.5527 310.234 50.0797C310.295 49.5559 310.449 49.043 310.562 48.5273C309.384 48.2255 309.285 48.2565 308.865 49.1459C308.692 49.5173 308.578 49.929 307.839 49.6675C308.051 47.9815 308.706 46.3739 309.062 44.704C309.42 43.0232 309.736 41.3274 310.088 39.5554ZM312.744 39.566C312.152 39.5556 311.598 39.546 311.024 39.536C310.435 42.2492 309.876 44.8271 309.303 47.4707C311.247 47.6894 312.976 47.4086 314.642 46.6373C314.07 44.2518 313.747 41.8595 312.744 39.566ZM309.417 38.3911C310.9 38.8322 312.308 38.7627 313.716 38.5551C314.277 38.4729 314.564 38.1018 314.538 37.5231C314.511 36.9524 314.475 36.3806 314.443 35.8348C312.402 35.3939 310.757 35.4135 309.244 35.9389C309.296 36.6712 309.351 37.4485 309.417 38.3911ZM313.424 48.6622C313.207 49.4329 313.153 49.9358 313.882 50.2292C314.243 49.6076 314.043 49.1953 313.424 48.6622ZM310.875 50.2522C311.464 49.8035 311.464 49.8035 311.037 49.0133C310.97 49.52 310.921 49.8861 310.875 50.2522Z" fill="#952225"/>
<path fill-rule="evenodd" clip-rule="evenodd" d="M389.651 22.5626C389.766 23.5492 389.856 24.3193 389.959 25.1986C388.377 25.5136 386.952 25.7978 385.403 26.1054C385.322 25.8677 385.209 25.5522 385.107 25.232C384.591 23.5959 384.621 23.5475 386.252 23.2376C387.298 23.0384 388.342 22.8243 389.651 22.5626Z" fill="#952225" stroke="#952225" stroke-miterlimit="10" stroke-linecap="round" stroke-linejoin="round"/>
<path fill-rule="evenodd" clip-rule="evenodd" d="M391.105 25.1184C391.939 25.4329 392.596 25.7107 393.275 25.93C395.742 26.7318 396.827 28.6379 397.348 30.9954C397.878 33.392 397.868 35.8083 397.298 38.1759C396.663 40.8152 396.25 43.5221 394.987 45.9962C394.549 46.8522 394.427 47.8559 393.672 48.5763C392.623 49.5835 391.429 49.8185 390.306 48.8948C388.691 47.5677 387.161 46.1314 385.679 44.656C383.893 42.8782 382.788 40.6126 381.478 38.4947C379.563 35.3989 380.364 29.8265 383.644 27.6447C384.234 27.2509 384.378 26.8048 384.238 26.1768C384.092 25.5216 383.928 24.869 383.817 24.2085C383.64 23.1596 383.757 22.967 384.793 22.7106C386.346 22.3291 387.907 21.9787 389.469 21.6323C390.074 21.497 390.41 21.7521 390.573 22.4757C390.776 23.3871 390.944 24.3068 391.105 25.1184ZM386.028 27.0225C385.616 27.3069 385.386 27.4391 385.187 27.607C384.641 28.0706 384.078 28.52 383.574 29.0245C381.135 31.476 380.787 34.9424 382.028 37.433C382.604 38.5903 383.309 39.6853 383.945 40.8139C385.514 43.6033 387.906 45.6439 390.307 47.6436C391.884 48.9559 393.041 48.514 393.837 46.6193C394.028 46.1702 394.092 45.6614 394.302 45.2227C395.981 41.6891 396.562 37.9074 396.725 34.056C396.806 32.1683 396.447 30.3444 395.379 28.6927C394.305 27.0308 391.859 25.9303 389.929 26.32C391.061 28.7642 392.195 31.2235 393.338 33.678C393.723 34.5083 393.732 34.5044 392.821 35.0635C391.821 33.9793 391.821 33.9793 391.306 34.3836C391.575 35.0634 391.912 35.6956 392.076 36.3731C392.254 37.111 391.956 37.4979 391.284 37.6869C390.722 37.8431 390.384 37.635 390.181 36.8546C390.018 36.2281 389.976 35.569 389.869 34.8636C389.581 34.9596 389.354 35.0329 389.217 35.079C389.385 35.9267 389.617 36.6517 389.65 37.3876C389.678 38.0273 389.203 38.4394 388.641 38.4137C388.039 38.387 387.8 37.957 387.784 37.4225C387.761 36.7619 387.797 36.1025 387.808 35.4146C387.111 35.2729 386.695 35.5223 386.409 36.1554C386.313 36.3665 385.972 36.4684 385.744 36.6186C385.66 36.3898 385.485 36.1541 385.5 35.9314C385.685 33.3527 385.902 30.7746 386.098 28.1962C386.121 27.8916 386.064 27.5843 386.028 27.0225ZM392.006 32.9849C391.126 31.1261 390.29 29.2602 389.366 27.4385C388.743 26.2061 388.557 26.1942 387.04 26.8116C386.887 29.36 386.733 31.9563 386.578 34.5396C388.668 34.8595 390.222 33.8918 392.006 32.9849ZM389.651 22.5624C388.343 22.824 387.298 23.0382 386.251 23.2373C384.622 23.5472 384.592 23.5956 385.106 25.2318C385.208 25.552 385.321 25.8674 385.402 26.1052C386.951 25.7975 388.376 25.5133 389.958 25.1984C389.857 24.319 389.765 23.5489 389.651 22.5624ZM390.738 35.2759C390.499 35.966 390.578 36.5308 391.021 37.1322C391.566 36.1424 391.566 36.1424 390.738 35.2759ZM388.674 36.2229C388.557 36.6995 388.034 37.2037 388.712 37.724C389.224 37.1586 389.109 36.6851 388.674 36.2229Z" fill="#952225"/>
<path fill-rule="evenodd" clip-rule="evenodd" d="M426.239 15.2215C426.037 14.2991 425.87 13.5374 425.713 12.821C424.116 12.7445 422.531 13.1864 420.696 14.1852C420.821 14.7169 420.946 15.2747 421.081 15.8306C421.219 16.3946 421.598 16.6676 422.161 16.5894C423.569 16.3939 424.939 16.0635 426.239 15.2215Z" fill="#952225" stroke="#952225" stroke-miterlimit="10" stroke-linecap="round" stroke-linejoin="round"/>
<path fill-rule="evenodd" clip-rule="evenodd" d="M427.125 14.386C427.281 15.1044 427.585 15.5019 428.352 15.762C429.565 16.1765 430.825 16.669 431.831 17.4392C433.598 18.7905 434.979 20.4918 434.935 22.9314C434.909 24.4062 434.966 25.8877 434.837 27.3523C434.719 28.6801 434.409 29.992 434.164 31.3081C434.059 31.878 433.936 32.4506 433.763 33.0031C433.217 34.748 432.728 36.5172 432.056 38.2125C431.608 39.3463 430.42 39.7876 429.382 39.1817C428.045 38.4015 426.734 37.5029 425.615 36.4422C424.124 35.0317 422.742 33.4834 421.469 31.8704C419.606 29.5158 417.802 27.0855 417.479 23.9491C417.244 21.6626 417.655 19.5888 419.603 18.0823C419.88 17.867 420.147 17.6445 420.434 17.4115C420.14 16.1411 419.858 14.9239 419.536 13.5349C421.734 12.6297 424.009 12.0912 426.374 11.5346C426.638 12.5294 426.922 13.4495 427.125 14.386ZM428.358 21.1813C429.172 22.6827 430.253 24.0416 430.929 25.5991C430.295 26.0569 430.07 25.6961 429.798 25.3874C429.145 24.6505 429.042 24.6484 427.996 25.2696C428.25 25.732 428.542 26.1812 428.748 26.6667C428.933 27.1066 428.913 27.5903 428.436 27.8444C427.939 28.105 427.377 27.9963 427.143 27.5082C426.844 26.8889 426.731 26.1793 426.493 25.3511C426.42 25.3436 426.141 25.3188 425.876 25.2952C425.84 25.4705 425.788 25.5634 425.812 25.628C425.972 26.0924 426.199 26.5382 426.309 27.0117C426.486 27.7755 426.163 28.3759 425.574 28.5216C425.014 28.6599 424.435 28.2257 424.283 27.4593C424.208 27.0807 424.294 26.6684 424.318 26.2698C424.332 26.024 424.367 25.7807 424.401 25.4434C423.539 25.5623 423.539 26.1525 423.567 26.6532C423.61 27.3902 423.227 27.5702 422.501 27.643C422.476 25.8941 422.472 24.2237 422.428 22.5524C422.383 20.9051 422.297 19.2599 422.23 17.6092C418.981 18.5743 417.941 21.8913 418.411 24.2477C418.773 26.0586 419.528 27.6528 420.543 29.1064C422.854 32.4155 425.395 35.5374 428.763 37.8664C428.91 37.9695 429.053 38.0795 429.209 38.1648C430.054 38.6276 430.745 38.5371 431.121 37.6908C431.755 36.2697 432.27 34.7902 432.758 33.3101C432.994 32.5959 432.987 31.8066 433.206 31.085C433.978 28.5636 434.037 25.9883 434.023 23.3774C434.013 21.5818 433.364 20.1149 432.161 18.9234C430.63 17.405 428.722 16.5349 426.555 16.3035C426.404 16.2863 426.236 16.4118 425.919 16.5262C426.761 18.1312 427.54 19.6678 428.358 21.1813ZM423.546 24.6063C425.363 24.8764 427.099 24.6607 428.906 23.9024C427.61 21.5267 426.347 19.2107 425.019 16.7744C424.47 16.9449 423.944 17.111 423.377 17.2851C423.061 19.7691 423.424 22.1542 423.546 24.6063ZM425.714 12.8211C424.116 12.7446 422.532 13.1865 420.696 14.1853C420.821 14.717 420.946 15.2748 421.082 15.8307C421.219 16.3947 421.598 16.6677 422.161 16.5895C423.57 16.394 424.941 16.0636 426.241 15.2216C426.038 14.2992 425.871 13.5375 425.714 12.8211ZM425.29 27.8365C425.909 27.3514 425.713 26.8842 425.287 26.2051C424.843 26.8899 424.768 27.3455 425.29 27.8365ZM427.676 25.871C427.49 26.7483 427.49 26.7483 428.181 27.0129C428.033 26.6757 427.882 26.3385 427.676 25.871Z" fill="#952225"/>
<path fill-rule="evenodd" clip-rule="evenodd" d="M347.125 31.3514C347.335 32.323 347.498 33.0806 347.684 33.9476C349.283 33.7351 350.723 33.5442 352.289 33.3369C352.289 33.0849 352.294 32.7489 352.287 32.4147C352.249 30.6985 352.204 30.6646 350.561 30.8962C349.506 31.0432 348.449 31.1781 347.125 31.3514Z" fill="#952225" stroke="#952225" stroke-miterlimit="10" stroke-linecap="round" stroke-linejoin="round"/>
<path fill-rule="evenodd" clip-rule="evenodd" d="M346.225 31.5667C346.144 30.8308 346.384 30.4798 346.997 30.4126C348.588 30.2369 350.179 30.0652 351.773 29.9265C352.836 29.8358 353.009 29.9794 353.181 31.0282C353.288 31.6906 353.343 32.3599 353.415 33.0276C353.486 33.6682 353.766 34.0431 354.453 34.2236C358.261 35.2315 360.815 40.2511 360.001 43.7949C359.443 46.2227 359.129 48.7227 358.011 50.9828C357.083 52.8568 356.098 54.7115 354.999 56.4869C354.234 57.7232 353.028 57.8869 351.71 57.2732C350.764 56.8313 350.324 55.9239 349.634 55.2523C347.641 53.3151 346.375 50.8881 344.922 48.5931C343.618 46.5364 342.831 44.2514 342.56 41.8132C342.293 39.4151 342.704 37.2602 344.782 35.7064C345.351 35.2782 345.886 34.8053 346.574 34.2396C346.464 33.4221 346.324 32.497 346.225 31.5667ZM352.305 35.5389C353.322 37.9157 354.357 40.2879 355.364 42.6685C355.45 42.8734 355.362 43.1526 355.357 43.3985C355.09 43.3279 354.735 43.3425 354.577 43.1731C354.104 42.6671 353.628 42.5651 353.015 42.9254C353.246 43.5694 353.493 44.1837 353.684 44.8148C353.84 45.3282 353.755 45.8125 353.195 46.0308C352.67 46.2349 352.087 45.9996 351.909 45.3847C351.703 44.6793 351.688 43.9148 351.573 43.0592C351.426 43.0621 351.189 43.0632 350.887 43.0669C351.014 43.7707 351.185 44.4074 351.234 45.0525C351.293 45.857 351.04 46.1637 350.457 46.1945C349.761 46.2329 349.353 45.9623 349.285 45.2067C349.221 44.5143 349.336 43.8055 349.373 43.0771C348.756 42.8592 348.756 42.8592 348.159 44.2099C347.114 43.973 347.123 43.9732 347.221 43.0651C347.512 40.3716 347.792 37.6778 348.076 34.9992C346.125 35.2534 344.163 37.0837 343.683 39.0021C343.205 40.9085 343.452 42.7521 344.137 44.5128C345.534 48.1058 347.303 51.4986 350.033 54.3004C350.372 54.6516 350.598 55.1094 350.922 55.4753C352.286 57.0082 353.524 57.0551 354.594 55.3041C356.222 52.6367 357.829 49.9347 358.415 46.7863C358.652 45.514 358.966 44.2503 359.139 42.9686C359.51 40.2098 358.064 37.0408 354.965 35.5086C354.325 35.1901 353.646 34.9478 352.98 34.6858C352.738 34.5908 352.477 34.5403 351.997 34.4052C352.139 34.9493 352.186 35.2583 352.305 35.5389ZM353.897 41.6986C352.918 39.3046 351.934 36.8944 350.968 34.5317C349.332 34.4384 349.161 34.5078 348.967 35.875C348.681 37.8985 348.489 39.9359 348.258 41.9785C350.237 42.261 352.022 42.6755 353.897 41.6986ZM347.684 33.9478C349.283 33.7352 350.723 33.5443 352.289 33.3371C352.289 33.085 352.295 32.749 352.287 32.4148C352.249 30.6987 352.204 30.6647 350.562 30.8964C349.507 31.0443 348.451 31.1782 347.126 31.3515C347.335 32.3231 347.499 33.0797 347.684 33.9478ZM350.526 45.5838C350.753 44.8734 350.647 44.3131 350.196 43.7365C349.691 44.8262 349.691 44.8262 350.526 45.5838ZM352.903 45.4006C353.377 44.6893 352.72 44.3785 352.454 43.9688C352.193 44.5465 352.237 45.0295 352.903 45.4006Z" fill="#952225"/>
</g>
<defs>
<clipPath id="clip0_38_2426">
<rect width="440" height="69" fill="white"/>
</clipPath>
</defs>
</svg>
