<svg width="442" height="69" viewBox="0 0 442 69" fill="none" xmlns="http://www.w3.org/2000/svg">
<path d="M18.9941 20.2224C19.0261 18.8434 17.9511 13.4434 20.1131 13.3294C23.3821 13.1584 19.0551 19.2534 18.2611 20.1224C17.6651 20.7754 18.6351 21.7514 19.2341 21.0954C20.9421 19.2244 25.1571 13.3844 20.8421 12.0474C16.4811 10.6964 17.6661 18.1444 17.6181 20.2224C17.5981 21.1094 18.9731 21.1074 18.9941 20.2224Z" fill="#952225"/>
<path d="M52.7333 28.3331C52.2903 26.9941 51.8793 25.6391 51.7603 24.2271C51.6953 23.4581 51.7633 22.6801 52.1473 22.0001C52.3763 21.5971 54.0143 20.7031 54.2853 21.4231C54.6673 22.4391 53.5453 24.1621 53.0973 25.0051C52.5733 25.9931 51.9533 26.9211 51.3963 27.8901C50.9543 28.6601 52.1423 29.3521 52.5843 28.5831C53.4233 27.1231 57.8273 21.0521 54.6083 19.9801C52.7173 19.3501 50.9263 20.7111 50.4883 22.5061C49.9973 24.5191 50.7803 26.8031 51.4053 28.6971C51.6833 29.5361 53.0123 29.1761 52.7333 28.3331Z" fill="#952225"/>
<path d="M87.5694 31.8081C87.5134 30.5771 85.9284 24.0781 88.2544 24.5851C89.8454 24.9331 87.1274 30.5911 86.7764 31.4671C86.4464 32.2901 87.7764 32.6451 88.1024 31.8321C88.8634 29.9361 92.0174 24.0011 88.4014 23.2121C84.1004 22.2731 86.1044 29.8401 86.1944 31.8081C86.2344 32.6911 87.6094 32.6951 87.5694 31.8081Z" fill="#952225"/>
<path d="M123.071 35.4112C122.775 34.1272 121.32 28.3902 124.025 28.9212C125.329 29.1772 122.635 34.3792 122.399 35.1652C122.144 36.0172 123.471 36.3772 123.725 35.5302C124.259 33.7512 127.748 28.2542 124.175 27.5522C119.808 26.6952 121.245 33.6052 121.745 35.7762C121.944 36.6402 123.269 36.2742 123.071 35.4112Z" fill="#952225"/>
<path d="M159.481 37.8602C158.953 36.5992 157.471 31.0902 159.805 30.9742C161.717 30.8792 159.227 37.0802 158.857 37.9052C158.497 38.7072 159.682 39.4062 160.045 38.5982C160.851 36.8032 163.859 30.0482 160.058 29.6272C155.925 29.1682 157.274 36.1202 158.156 38.2252C158.492 39.0312 159.823 38.6772 159.481 37.8602Z" fill="#952225"/>
<path d="M197.611 40.8402C197.327 39.6382 195.265 33.8392 197.977 34.3042C199.569 34.5772 197.417 39.5772 196.919 40.3342C196.431 41.0772 197.622 41.7662 198.107 41.0272C199.211 39.3462 201.496 33.5172 198.133 32.9412C193.547 32.1562 195.795 39.1312 196.284 41.2052C196.489 42.0692 197.814 41.7032 197.611 40.8402Z" fill="#952225"/>
<path d="M234.778 41.0503C233.856 39.6913 232.375 33.9533 235.137 33.9463C237.484 33.9413 234.587 39.7963 234.065 40.7043C233.622 41.4743 234.81 42.1663 235.253 41.3973C236.466 39.2903 239.472 33.0393 235.138 32.5713C230.806 32.1043 232.242 39.7533 233.591 41.7433C234.085 42.4723 235.277 41.7853 234.778 41.0503Z" fill="#952225"/>
<path d="M273.737 39.4604C273.173 38.0454 271.613 33.0194 273.6 32.1804C275.744 31.2764 274.73 34.4403 274.417 35.2653C273.942 36.5203 273.102 37.7774 272.885 39.1154C272.744 39.9824 274.069 40.3543 274.211 39.4803C274.562 37.3163 279.007 30.6674 273.889 30.7374C269.906 30.7924 271.579 37.7434 272.41 39.8264C272.735 40.6384 274.066 40.2844 273.737 39.4604Z" fill="#952225"/>
<path d="M312.836 37.1653C312.178 35.1823 310.49 32.6603 311.058 30.5053C311.254 29.7593 312.571 30.1523 312.883 30.5723C313.322 31.1623 313.141 32.1693 313.029 32.8293C312.801 34.1703 312.276 35.4493 311.806 36.7183C311.497 37.5513 312.827 37.9073 313.132 37.0833C313.8 35.2803 314.547 33.4263 314.509 31.4713C314.475 29.7393 312.968 28.3233 311.179 28.7963C307.619 29.7383 310.853 35.5473 311.51 37.5303C311.788 38.3683 313.117 38.0083 312.836 37.1653Z" fill="#952225"/>
<path d="M349.975 31.868C349.411 30.622 346.13 24.266 348.77 23.972C351.636 23.653 349.105 30.446 348.986 31.859C348.912 32.743 350.287 32.736 350.361 31.859C350.567 29.416 353.63 22.056 348.465 22.631C344.022 23.126 347.878 30.553 348.787 32.561C349.153 33.368 350.337 32.669 349.975 31.868Z" fill="#952225"/>
<path d="M387.716 22.9952C387.081 22.1032 386.61 21.0792 386.17 20.0822C385.784 19.2062 384.734 16.9892 385.457 16.0812C386.029 15.3632 386.752 16.3392 386.915 16.8212C387.165 17.5602 387.16 18.3862 387.165 19.1582C387.173 20.4732 386.979 21.7752 386.904 23.0862C386.853 23.9732 388.228 23.9672 388.279 23.0862C388.395 21.0772 389.521 12.9292 385.09 14.7082C381.999 15.9492 385.367 22.0612 386.528 23.6882C387.038 24.4042 388.232 23.7192 387.716 22.9952Z" fill="#952225"/>
<path d="M422.994 12.1252C421.701 11.1342 417.061 4.82024 420.693 4.70724C422.932 4.63724 421.794 11.3392 421.992 12.7202C422.118 13.5952 423.443 13.2222 423.318 12.3552C422.956 9.83722 424.637 1.61724 419.344 3.58224C415.249 5.10224 420.471 11.9122 422.3 13.3132C423.004 13.8512 423.688 12.6562 422.994 12.1252Z" fill="#952225"/>
<path fill-rule="evenodd" clip-rule="evenodd" d="M278.689 35.5252C275.797 35.6382 272.906 35.7482 270.015 35.8632C266.686 35.9962 263.356 36.0932 260.03 36.2752C253.368 36.6362 246.71 37.0762 240.047 37.4062C238.21 37.5002 236.362 37.2972 234.517 37.2812C228.633 37.2362 222.747 37.1912 216.865 37.1952C207.471 37.1972 198.078 37.3242 188.686 37.2342C182.63 37.1752 176.563 37.1192 170.593 35.7092C168.302 35.1702 165.898 35.0532 163.534 34.8872C153.715 34.1982 143.893 33.5222 134.068 32.9242C129.18 32.6272 124.279 32.5632 119.39 32.2872C117.475 32.1802 115.575 31.7852 113.668 31.5232C107.319 30.6522 100.973 29.7712 94.6198 28.9232C93.4928 28.7752 92.3438 28.8022 91.2098 28.6982C88.2488 28.4232 85.2928 28.0912 82.3298 27.8372C78.5028 27.5072 74.6618 27.3022 70.8408 26.9052C66.3958 26.4442 61.9708 25.7842 57.5268 25.2972C50.0098 24.4772 42.7958 22.1642 35.3658 20.8582C28.8168 19.7062 22.4278 17.6182 15.9888 15.8662C11.1658 14.5532 6.37475 13.1202 1.56875 11.7372C1.31675 11.6652 0.977752 11.6392 0.841752 11.4652C0.492752 11.0222 -0.0342485 10.4832 0.00175148 10.0222C0.0637515 9.23321 0.764751 8.8562 1.57175 9.0812C3.42775 9.5992 5.31275 10.0602 7.11075 10.7452C16.2548 14.2252 25.8188 16.2272 35.2288 18.7672C37.1738 19.2922 39.1998 19.5192 41.1798 19.9212C46.4248 20.9872 51.6388 22.2452 56.9158 23.1062C61.7608 23.8972 66.6638 24.3832 71.5588 24.7922C76.2848 25.1852 81.0518 25.0692 85.6908 26.3152C86.6068 26.5612 87.6168 26.4482 88.5758 26.5592C92.9328 27.0672 97.2888 27.5942 101.645 28.1182C105.043 28.5262 108.463 28.8092 111.836 29.3742C121.593 30.9992 131.471 30.5362 141.277 31.2312C148.726 31.7582 156.177 32.3352 163.594 33.1742C178.032 34.8052 192.52 35.0762 207.022 35.1292C212.734 35.1492 218.448 35.2872 224.158 35.1902C232.063 35.0552 239.967 34.7662 247.87 34.5042C254.976 34.2662 262.087 34.0922 269.184 33.6822C280.054 33.0512 290.916 32.2642 301.778 31.5002C307.559 31.0922 313.35 30.7402 319.108 30.1002C326.616 29.2682 334.121 28.3422 341.579 27.1532C349.902 25.8292 358.19 24.2532 366.458 22.6062C370.498 21.8012 374.483 20.6742 378.449 19.5422C387.053 17.0872 395.671 14.6612 404.206 11.9792C410.819 9.89921 417.294 7.38319 423.873 5.18819C426.778 4.21919 429.812 3.63919 432.74 2.73119C434.655 2.13519 436.486 1.26819 438.355 0.524192C438.84 0.331192 439.348 -0.043797 439.811 0.00420305C440.332 0.057203 440.937 0.399196 441.257 0.809196C441.395 0.985196 441.024 1.8092 440.682 2.0592C439.91 2.6222 439.055 3.13119 438.159 3.44619C435.262 4.46919 432.336 5.40319 429.416 6.35619C419.571 9.57119 409.748 12.8522 399.871 15.9602C394.438 17.6692 388.922 19.1162 383.429 20.6302C379.457 21.7222 375.442 22.6612 371.483 23.7962C361.925 26.5402 352.093 27.8882 342.319 29.4742C333.743 30.8632 325.104 31.9192 316.463 32.8452C309.672 33.5752 302.834 33.8662 296.02 34.3822C291.642 34.7142 287.27 35.1132 282.894 35.4542C281.497 35.5612 280.094 35.5772 278.694 35.6362C278.692 35.5992 278.69 35.5622 278.689 35.5252Z" fill="#952225"/>
<path fill-rule="evenodd" clip-rule="evenodd" d="M15.4395 23.2856C15.5655 22.3496 15.6685 21.5766 15.7665 20.8496C17.3535 20.6426 18.9685 20.9526 20.8785 21.7966C20.7985 22.3376 20.7185 22.9036 20.6295 23.4666C20.5395 24.0406 20.1845 24.3456 19.6175 24.3146C18.1975 24.2326 16.8045 24.0176 15.4395 23.2856Z" fill="#952225" stroke="#952225" stroke-miterlimit="10" stroke-linecap="round" stroke-linejoin="round"/>
<path fill-rule="evenodd" clip-rule="evenodd" d="M15.0047 19.6216C17.4077 19.9806 19.7197 20.3286 21.9837 21.0536C21.7777 22.4636 21.5967 23.6996 21.4077 24.9896C21.7117 25.1966 21.9967 25.3976 22.2907 25.5896C24.3547 26.9316 24.9377 28.9646 24.8907 31.2616C24.8267 34.4156 23.2287 36.9866 21.5657 39.4866C20.4277 41.1976 19.1777 42.8556 17.8087 44.3846C16.7797 45.5336 15.5487 46.5366 14.2807 47.4236C13.2957 48.1126 12.0747 47.7696 11.5357 46.6776C10.7267 45.0406 10.0927 43.3206 9.4057 41.6246C9.1877 41.0896 9.0187 40.5286 8.8657 39.9706C8.5137 38.6796 8.0977 37.3966 7.8717 36.0836C7.6227 34.6326 7.5567 33.1496 7.4097 31.6856C7.1657 29.2576 8.4017 27.4476 10.0517 25.9556C10.9897 25.1056 12.2057 24.5126 13.3817 23.9986C14.1227 23.6766 14.3937 23.2566 14.4897 22.5276C14.6147 21.5746 14.8217 20.6346 15.0047 19.6216ZM15.8627 24.5626C15.5377 24.4726 15.3617 24.3616 15.2117 24.3906C13.0707 24.7986 11.2417 25.8226 9.8397 27.4626C8.7397 28.7496 8.2117 30.2656 8.3507 32.0546C8.5517 34.6566 8.8237 37.2206 9.7977 39.6696C10.0767 40.3686 10.1357 41.1596 10.4277 41.8496C11.0357 43.2856 11.6717 44.7166 12.4207 46.0816C12.8647 46.8946 13.5617 46.9276 14.3657 46.3956C14.5127 46.2976 14.6467 46.1746 14.7837 46.0616C17.9487 43.4616 20.2257 40.1436 22.2567 36.6536C23.1487 35.1226 23.7717 33.4696 23.9827 31.6396C24.2577 29.2486 22.9477 26.0286 19.6317 25.3366C19.6997 26.9846 19.7497 28.6336 19.8417 30.2776C19.9337 31.9456 20.0667 33.6116 20.1867 35.3576C19.4567 35.3436 19.0607 35.1956 19.0427 34.4556C19.0297 33.9576 18.9817 33.3676 18.1127 33.3226C18.1757 33.6546 18.2297 33.8946 18.2637 34.1376C18.3207 34.5326 18.4397 34.9386 18.3957 35.3216C18.3077 36.0986 17.7637 36.5776 17.1967 36.4856C16.5967 36.3876 16.2237 35.8176 16.3387 35.0426C16.4097 34.5606 16.5997 34.0956 16.7217 33.6206C16.7397 33.5546 16.6807 33.4686 16.6297 33.2946C16.3657 33.3416 16.0927 33.3886 16.0197 33.4016C15.8517 34.2456 15.7967 34.9626 15.5487 35.6046C15.3557 36.1086 14.8037 36.2646 14.2887 36.0436C13.7907 35.8306 13.7307 35.3506 13.8807 34.8976C14.0457 34.3976 14.3007 33.9246 14.5147 33.4446C13.4217 32.9136 13.3187 32.9216 12.7307 33.7086C12.4837 34.0386 12.2897 34.4176 11.6197 34.0136C12.1667 32.4066 13.1327 30.9626 13.8177 29.3986C14.5097 27.8226 15.1607 26.2286 15.8627 24.5626ZM18.4627 25.1076C17.8847 24.9786 17.3447 24.8576 16.7837 24.7306C15.6597 27.2696 14.5927 29.6816 13.4977 32.1566C15.3577 32.7636 17.1067 32.8366 18.8967 32.4166C18.8177 29.9646 18.9827 27.5546 18.4627 25.1076ZM15.4397 23.2856C16.8047 24.0176 18.1977 24.2326 19.6187 24.3146C20.1847 24.3456 20.5407 24.0416 20.6307 23.4666C20.7197 22.9036 20.7997 22.3376 20.8797 21.7966C18.9697 20.9526 17.3547 20.6426 15.7677 20.8496C15.6677 21.5766 15.5657 22.3496 15.4397 23.2856ZM17.2917 34.1546C16.9247 34.8676 16.7697 35.3476 17.4247 35.7796C17.9047 35.2466 17.7917 34.8016 17.2917 34.1546ZM14.4757 35.1956C15.1427 34.8756 15.1427 34.8756 14.8827 34.0156C14.7167 34.5006 14.5957 34.8476 14.4757 35.1956Z" fill="#952225"/>
<path fill-rule="evenodd" clip-rule="evenodd" d="M125.329 36.5216C125.205 37.5076 125.109 38.2776 124.999 39.1546C123.388 39.0826 121.937 39.0176 120.357 38.9496C120.336 38.6976 120.301 38.3636 120.28 38.0276C120.17 36.3166 120.211 36.2776 121.867 36.3656C122.93 36.4226 123.996 36.4616 125.329 36.5216Z" fill="#952225" stroke="#952225" stroke-miterlimit="10" stroke-linecap="round" stroke-linejoin="round"/>
<path fill-rule="evenodd" clip-rule="evenodd" d="M126.13 39.3534C126.864 39.8554 127.439 40.2834 128.043 40.6584C130.249 42.0254 130.846 44.1354 130.789 46.5474C130.732 49.0024 130.145 51.3464 129.025 53.5084C127.778 55.9204 126.73 58.4494 124.913 60.5514C124.283 61.2794 123.925 62.2234 123.021 62.7444C121.761 63.4714 120.546 63.4144 119.675 62.2484C118.426 60.5744 117.282 58.8124 116.195 57.0254C114.884 54.8734 114.354 52.4104 113.588 50.0394C112.467 46.5784 114.575 41.3574 118.281 40.0214C118.949 39.7794 119.196 39.3824 119.209 38.7384C119.224 38.0684 119.22 37.3944 119.27 36.7264C119.35 35.6654 119.51 35.5074 120.577 35.5074C122.176 35.5054 123.775 35.5364 125.375 35.5734C125.994 35.5874 126.261 35.9174 126.246 36.6574C126.226 37.5924 126.167 38.5234 126.13 39.3534ZM120.746 39.9884C120.278 40.1664 120.023 40.2384 119.791 40.3534C119.149 40.6714 118.495 40.9744 117.885 41.3454C114.932 43.1444 113.767 46.4254 114.376 49.1404C114.659 50.4044 115.083 51.6344 115.43 52.8824C116.287 55.9664 118.123 58.5194 119.978 61.0324C121.196 62.6844 122.424 62.5304 123.65 60.8844C123.942 60.4914 124.127 60.0154 124.435 59.6364C126.911 56.6074 128.376 53.0734 129.455 49.3724C129.983 47.5574 130.069 45.7004 129.427 43.8434C128.781 41.9744 126.668 40.3214 124.702 40.2384C125.217 42.8814 125.731 45.5434 126.255 48.1994C126.432 49.0964 126.443 49.0944 125.422 49.4204C124.709 48.1294 124.709 48.1294 124.113 48.3994C124.213 49.1224 124.388 49.8174 124.386 50.5124C124.382 51.2724 124.002 51.5774 123.304 51.6004C122.72 51.6184 122.441 51.3364 122.431 50.5304C122.423 49.8824 122.537 49.2314 122.602 48.5204C122.301 48.5434 122.063 48.5634 121.917 48.5734C121.878 49.4364 121.931 50.1984 121.788 50.9194C121.663 51.5484 121.102 51.8334 120.562 51.6754C119.984 51.5074 119.857 51.0334 119.967 50.5074C120.104 49.8614 120.296 49.2284 120.471 48.5644C119.826 48.2614 119.363 48.4044 118.937 48.9494C118.792 49.1334 118.438 49.1484 118.179 49.2404C118.151 48.9984 118.038 48.7264 118.106 48.5154C118.902 46.0544 119.728 43.6034 120.534 41.1444C120.628 40.8534 120.647 40.5414 120.746 39.9884ZM125.126 47.2074C124.717 45.1914 124.351 43.1804 123.889 41.1874C123.576 39.8414 123.4 39.7874 121.779 40.0234C121.022 42.4624 120.252 44.9474 119.485 47.4184C121.437 48.2284 123.178 47.6584 125.126 47.2074ZM125.329 36.5214C123.996 36.4604 122.931 36.4214 121.867 36.3654C120.211 36.2774 120.17 36.3164 120.28 38.0274C120.301 38.3634 120.336 38.6974 120.357 38.9494C121.936 39.0174 123.387 39.0824 124.999 39.1544C125.109 38.2774 125.204 37.5074 125.329 36.5214ZM123.349 49.1254C122.951 49.7404 122.893 50.3094 123.181 50.9964C123.947 50.1664 123.947 50.1664 123.349 49.1254ZM121.119 49.5544C120.89 49.9864 120.264 50.3534 120.798 51.0194C121.429 50.5924 121.431 50.1074 121.119 49.5544Z" fill="#952225"/>
<path fill-rule="evenodd" clip-rule="evenodd" d="M89.3626 35.5216C89.4896 34.5856 89.5956 33.8126 89.6946 33.0836C88.2196 32.4626 86.5806 32.3337 84.5136 32.6427C84.4476 33.1837 84.3736 33.7496 84.3106 34.3186C84.2456 34.8966 84.5056 35.2836 85.0616 35.4026C86.4536 35.7036 87.8526 35.8636 89.3626 35.5216Z" fill="#952225" stroke="#952225" stroke-miterlimit="10" stroke-linecap="round" stroke-linejoin="round"/>
<path fill-rule="evenodd" clip-rule="evenodd" d="M90.4822 35.0416C90.3812 35.7686 90.5312 36.2446 91.1602 36.7546C92.1582 37.5616 93.1722 38.4556 93.8502 39.5226C95.0442 41.4016 95.7572 43.4736 94.8762 45.7496C94.3452 47.1246 93.8902 48.5366 93.2642 49.8666C92.6972 51.0756 91.9552 52.2006 91.2732 53.3506C90.9772 53.8506 90.6672 54.3446 90.3132 54.8036C89.2022 56.2546 88.1342 57.7466 86.9192 59.1106C86.1092 60.0186 84.8432 60.0266 84.0742 59.1006C83.0872 57.9096 82.1672 56.6146 81.4792 55.2336C80.5642 53.3956 79.8002 51.4656 79.1572 49.5126C78.2182 46.6626 77.3602 43.7606 78.1352 40.7026C78.6982 38.4756 79.8002 36.6696 82.1472 35.9236C82.4802 35.8186 82.8082 35.6986 83.1572 35.5796C83.3182 34.2866 83.4702 33.0466 83.6462 31.6326C86.0222 31.5366 88.3422 31.8146 90.7562 32.1056C90.6642 33.1296 90.6132 34.0926 90.4822 35.0416ZM89.3052 41.8456C89.5512 43.5346 90.0992 45.1816 90.2002 46.8786C89.4462 47.0896 89.3592 46.6736 89.2102 46.2886C88.8522 45.3726 88.7542 45.3376 87.5592 45.5606C87.6382 46.0816 87.7582 46.6056 87.7852 47.1306C87.8092 47.6076 87.6242 48.0546 87.0882 48.1286C86.5322 48.2046 86.0422 47.9076 85.9882 47.3706C85.9212 46.6856 86.0592 45.9776 86.1202 45.1206C86.0542 45.0896 85.8022 44.9686 85.5592 44.8546C85.4642 45.0066 85.3852 45.0756 85.3842 45.1456C85.3762 45.6356 85.4362 46.1336 85.3762 46.6166C85.2802 47.3936 84.7712 47.8466 84.1662 47.7806C83.5942 47.7176 83.1982 47.1126 83.3182 46.3406C83.3782 45.9596 83.6012 45.6006 83.7602 45.2356C83.8572 45.0086 83.9742 44.7926 84.1222 44.4896C83.2722 44.3016 83.0692 44.8586 82.9252 45.3356C82.7102 46.0446 82.2902 46.0816 81.5822 45.9016C82.1622 44.2496 82.7322 42.6786 83.2652 41.0946C83.7892 39.5316 84.2752 37.9576 84.7782 36.3836C81.3972 36.1746 79.2792 38.9306 78.9102 41.3056C78.6292 43.1296 78.7902 44.8876 79.2422 46.6006C80.2752 50.5046 81.5892 54.3076 83.9512 57.6536C84.0532 57.8006 84.1492 57.9546 84.2652 58.0876C84.9002 58.8146 85.5802 58.9646 86.2242 58.3026C87.3092 57.1856 88.3012 55.9726 89.2692 54.7496C89.7352 54.1596 89.9992 53.4156 90.4552 52.8156C92.0462 50.7116 92.9862 48.3136 93.8722 45.8566C94.4802 44.1676 94.3742 42.5676 93.6552 41.0346C92.7392 39.0796 91.2472 37.6066 89.2922 36.6476C89.1542 36.5796 88.9542 36.6376 88.6182 36.6376C88.8522 38.4316 89.0562 40.1426 89.3052 41.8456ZM83.6072 43.4086C85.2202 44.2876 86.9252 44.6796 88.8812 44.5886C88.4822 41.9126 88.0922 39.3036 87.6832 36.5596C87.1092 36.5326 86.5572 36.5046 85.9642 36.4756C84.8142 38.6996 84.3352 41.0626 83.6072 43.4086ZM89.6952 33.0846C88.2202 32.4636 86.5812 32.3346 84.5142 32.6436C84.4482 33.1846 84.3742 33.7506 84.3112 34.3196C84.2462 34.8976 84.5062 35.2846 85.0622 35.4036C86.4542 35.7046 87.8532 35.8646 89.3632 35.5226C89.4902 34.5866 89.5962 33.8126 89.6952 33.0846ZM84.1332 47.0416C84.8802 46.7956 84.8592 46.2936 84.6932 45.5066C84.0392 45.9986 83.8122 46.3986 84.1332 47.0416ZM87.0512 46.0136C86.5722 46.7736 86.5722 46.7736 87.1322 47.2596C87.1082 46.8926 87.0842 46.5236 87.0512 46.0136Z" fill="#952225"/>
<path fill-rule="evenodd" clip-rule="evenodd" d="M49.9444 28.7935C49.8974 29.7855 49.8604 30.5615 49.8184 31.4435C51.4184 31.6485 52.8594 31.8345 54.4254 32.0355C54.4894 31.7935 54.5804 31.4695 54.6594 31.1425C55.0624 29.4765 55.0274 29.4315 53.3814 29.2325C52.3244 29.1055 51.2684 28.9635 49.9444 28.7935Z" fill="#952225" stroke="#952225" stroke-miterlimit="10" stroke-linecap="round" stroke-linejoin="round"/>
<path fill-rule="evenodd" clip-rule="evenodd" d="M49.0178 28.7695C49.1298 28.0375 49.4498 27.7595 50.0618 27.8515C51.6428 28.0895 53.2248 28.3335 54.7998 28.6075C55.8508 28.7915 55.9818 28.9765 55.8778 30.0355C55.8118 30.7015 55.6928 31.3635 55.5918 32.0275C55.4948 32.6625 55.6688 33.0975 56.2868 33.4495C59.7098 35.4005 60.8908 40.9065 59.1928 44.1255C58.0308 46.3285 57.0868 48.6645 55.4248 50.5615C54.0478 52.1335 52.6188 53.6745 51.1008 55.1085C50.0428 56.1085 48.8358 55.9565 47.7188 55.0245C46.9178 54.3565 46.7278 53.3645 46.2318 52.5385C44.8018 50.1575 44.2028 47.4835 43.3868 44.8935C42.6548 42.5735 42.4798 40.1615 42.8438 37.7355C43.1998 35.3485 44.1518 33.3725 46.5588 32.4015C47.2188 32.1375 47.8578 31.8155 48.6668 31.4445C48.7748 30.6235 48.8768 29.6935 49.0178 28.7695ZM53.8748 34.1685C54.2468 36.7275 54.6408 39.2835 55.0018 41.8465C55.0328 42.0675 54.8758 42.3135 54.8068 42.5495C54.5678 42.4125 54.2208 42.3345 54.1108 42.1315C53.7848 41.5205 53.3518 41.3015 52.6648 41.4885C52.7238 42.1725 52.8048 42.8305 52.8278 43.4905C52.8478 44.0235 52.6398 44.4705 52.0418 44.5395C51.4818 44.6025 50.9798 44.2255 50.9648 43.5865C50.9468 42.8505 51.1278 42.1075 51.2388 41.2505C51.0958 41.2155 50.8658 41.1545 50.5718 41.0805C50.5148 41.7935 50.5158 42.4535 50.3968 43.0925C50.2478 43.8835 49.9238 44.1145 49.3518 43.9965C48.6698 43.8515 48.3468 43.4865 48.4738 42.7385C48.5898 42.0525 48.8828 41.3965 49.1048 40.7015C48.5638 40.3345 48.5638 40.3345 47.6398 41.4865C46.6918 40.9905 46.7008 40.9925 47.0288 40.1385C47.9998 37.6115 48.9638 35.0775 49.9248 32.5625C47.9728 32.3085 45.6078 33.5725 44.6518 35.3045C43.6998 37.0235 43.4658 38.8685 43.6758 40.7455C44.1038 44.5775 44.9428 48.3085 46.8618 51.7205C47.1008 52.1445 47.1998 52.6465 47.4218 53.0835C48.3458 54.9135 49.5298 55.2765 51.0128 53.8585C53.2728 51.6985 55.5188 49.4995 56.8928 46.6085C57.4478 45.4365 58.0758 44.2975 58.5718 43.1025C59.6378 40.5345 59.0528 37.0985 56.4518 34.8215C55.9148 34.3505 55.3208 33.9425 54.7458 33.5165C54.5348 33.3645 54.2978 33.2485 53.8658 32.9945C53.8668 33.5565 53.8318 33.8675 53.8748 34.1685ZM53.8318 40.5295C53.5008 37.9645 53.1668 35.3845 52.8398 32.8515C51.2838 32.3415 51.1018 32.3655 50.5628 33.6385C49.7658 35.5195 49.0598 37.4395 48.3108 39.3535C50.1518 40.1325 51.7698 40.9945 53.8318 40.5295ZM49.8178 31.4435C51.4178 31.6485 52.8588 31.8345 54.4248 32.0355C54.4888 31.7935 54.5798 31.4695 54.6588 31.1425C55.0618 29.4765 55.0268 29.4315 53.3808 29.2325C52.3228 29.1055 51.2678 28.9625 49.9428 28.7935C49.8968 29.7855 49.8598 30.5605 49.8178 31.4435ZM49.5788 43.4225C49.9798 42.7935 50.0198 42.2235 49.7338 41.5515C48.9658 42.4745 48.9658 42.4745 49.5788 43.4225ZM51.9218 43.8535C52.5618 43.2875 52.0068 42.8205 51.8558 42.3535C51.4548 42.8455 51.3738 43.3245 51.9218 43.8535Z" fill="#952225"/>
<path fill-rule="evenodd" clip-rule="evenodd" d="M156.646 41.4631C156.624 40.5201 156.607 39.7401 156.592 39.0061C158.128 38.5571 159.774 38.6151 161.789 39.1541C161.795 39.7011 161.804 40.2711 161.802 40.8441C161.801 41.4241 161.498 41.7821 160.933 41.8361C159.517 41.9741 158.107 41.9761 156.646 41.4631Z" fill="#952225" stroke="#952225" stroke-miterlimit="10" stroke-linecap="round" stroke-linejoin="round"/>
<path fill-rule="evenodd" clip-rule="evenodd" d="M155.651 37.9082C158.08 37.8962 160.42 37.8832 162.768 38.2502C162.782 39.6762 162.793 40.9242 162.805 42.2272C163.138 42.3852 163.451 42.5402 163.77 42.6842C166.016 43.6902 166.905 45.6102 167.212 47.8872C167.635 51.0122 166.453 53.7992 165.194 56.5262C164.335 58.3912 163.354 60.2212 162.237 61.9462C161.398 63.2372 160.338 64.4212 159.22 65.4912C158.352 66.3232 157.093 66.1732 156.393 65.1752C155.341 63.6872 154.449 62.0812 153.509 60.5132C153.212 60.0172 152.958 59.4922 152.721 58.9622C152.174 57.7412 151.565 56.5362 151.139 55.2742C150.669 53.8792 150.376 52.4242 150.004 50.9992C149.389 48.6402 150.331 46.6612 151.733 44.9312C152.528 43.9492 153.637 43.1732 154.72 42.4862C155.402 42.0522 155.605 41.5952 155.587 40.8632C155.567 39.9002 155.625 38.9392 155.651 37.9082ZM157.26 42.6582C156.925 42.6212 156.734 42.5392 156.589 42.5922C154.538 43.3242 152.888 44.6172 151.756 46.4532C150.866 47.8962 150.578 49.4732 150.992 51.2212C151.592 53.7622 152.255 56.2522 153.596 58.5242C153.98 59.1702 154.159 59.9422 154.554 60.5792C155.377 61.9032 156.225 63.2222 157.176 64.4542C157.74 65.1872 158.434 65.1142 159.146 64.4662C159.278 64.3452 159.39 64.2042 159.508 64.0712C162.235 61.0142 163.973 57.3832 165.442 53.6242C166.087 51.9722 166.447 50.2452 166.373 48.4012C166.277 45.9992 164.486 43.0202 161.103 42.8462C161.425 44.4632 161.727 46.0842 162.072 47.6962C162.42 49.3312 162.809 50.9562 163.196 52.6612C162.473 52.7612 162.059 52.6772 161.926 51.9482C161.837 51.4562 161.699 50.8832 160.833 50.9712C160.946 51.2892 161.036 51.5182 161.108 51.7522C161.224 52.1332 161.405 52.5162 161.421 52.9022C161.452 53.6832 160.989 54.2382 160.416 54.2362C159.808 54.2322 159.352 53.7242 159.346 52.9432C159.342 52.4532 159.457 51.9662 159.505 51.4782C159.511 51.4102 159.441 51.3322 159.364 51.1692C159.109 51.2552 158.846 51.3452 158.776 51.3702C158.739 52.2292 158.796 52.9462 158.651 53.6202C158.538 54.1472 158.016 54.3862 157.473 54.2472C156.95 54.1122 156.816 53.6472 156.894 53.1792C156.98 52.6582 157.159 52.1522 157.296 51.6442C156.134 51.2872 156.033 51.3122 155.572 52.1792C155.38 52.5442 155.247 52.9492 154.522 52.6522C154.814 50.9802 155.545 49.4042 155.982 47.7542C156.426 46.0892 156.823 44.4142 157.26 42.6582ZM159.914 42.7972C159.322 42.7602 158.77 42.7232 158.197 42.6862C157.478 45.3662 156.795 47.9142 156.094 50.5282C158.027 50.8432 159.766 50.6432 161.468 49.9542C161.011 47.5412 160.805 45.1362 159.914 42.7972ZM156.646 41.4632C158.107 41.9772 159.517 41.9752 160.933 41.8362C161.498 41.7812 161.801 41.4242 161.802 40.8442C161.804 40.2722 161.795 39.7012 161.789 39.1542C159.773 38.6152 158.128 38.5562 156.592 39.0062C156.607 39.7402 156.624 40.5192 156.646 41.4632ZM160.151 51.9162C159.898 52.6782 159.819 53.1762 160.533 53.5042C160.924 52.9002 160.745 52.4782 160.151 51.9162ZM157.529 53.3792C158.139 52.9612 158.139 52.9612 157.751 52.1502C157.659 52.6562 157.593 53.0172 157.529 53.3792Z" fill="#952225"/>
<path fill-rule="evenodd" clip-rule="evenodd" d="M237.121 42.0996C237.047 43.0896 236.988 43.8656 236.922 44.7456C235.31 44.7536 233.856 44.7596 232.276 44.7676C232.243 44.5176 232.191 44.1856 232.153 43.8516C231.959 42.1486 231.998 42.1076 233.656 42.1156C234.721 42.1176 235.787 42.1056 237.121 42.0996Z" fill="#952225" stroke="#952225" stroke-miterlimit="10" stroke-linecap="round" stroke-linejoin="round"/>
<path fill-rule="evenodd" clip-rule="evenodd" d="M238.061 44.8865C238.819 45.3535 239.413 45.7515 240.035 46.0975C242.307 47.3535 243.007 49.4335 243.068 51.8455C243.131 54.2965 242.661 56.6695 241.649 58.8845C240.521 61.3535 239.599 63.9315 237.887 66.1185C237.293 66.8785 236.982 67.8375 236.105 68.4035C234.882 69.1885 233.666 69.1945 232.739 68.0715C231.408 66.4625 230.179 64.7585 229.006 63.0285C227.592 60.9425 226.941 58.5085 226.058 56.1765C224.769 52.7745 226.619 47.4555 230.254 45.9405C230.909 45.6675 231.136 45.2565 231.118 44.6125C231.098 43.9425 231.062 43.2705 231.079 42.6025C231.105 41.5395 231.259 41.3725 232.323 41.3195C233.921 41.2395 235.519 41.1925 237.119 41.1495C237.738 41.1335 238.021 41.4485 238.043 42.1905C238.069 43.1235 238.056 44.0585 238.061 44.8865ZM232.714 45.7875C232.254 45.9865 232.004 46.0725 231.776 46.1995C231.152 46.5515 230.513 46.8855 229.922 47.2835C227.061 49.2245 226.059 52.5605 226.801 55.2425C227.146 56.4905 227.629 57.6975 228.037 58.9285C229.046 61.9675 231.005 64.4265 232.98 66.8465C234.278 68.4365 235.498 68.2215 236.64 66.5145C236.912 66.1085 237.073 65.6235 237.363 65.2335C239.686 62.0835 240.976 58.4835 241.872 54.7335C242.312 52.8955 242.307 51.0365 241.573 49.2125C240.836 47.3765 238.644 45.8295 236.676 45.8435C237.322 48.4585 237.966 51.0915 238.619 53.7185C238.839 54.6055 238.849 54.6055 237.848 54.9805C237.073 53.7245 237.073 53.7245 236.491 54.0235C236.626 54.7405 236.835 55.4275 236.867 56.1215C236.901 56.8815 236.536 57.2035 235.841 57.2605C235.258 57.3095 234.966 57.0395 234.915 56.2355C234.875 55.5895 234.959 54.9325 234.988 54.2195C234.688 54.2585 234.451 54.2895 234.307 54.3055C234.31 55.1705 234.399 55.9285 234.291 56.6575C234.198 57.2905 233.652 57.6025 233.105 57.4725C232.52 57.3315 232.369 56.8635 232.454 56.3335C232.558 55.6815 232.72 55.0405 232.861 54.3685C232.202 54.0975 231.747 54.2615 231.347 54.8275C231.212 55.0175 230.858 55.0525 230.605 55.1555C230.565 54.9155 230.439 54.6495 230.497 54.4345C231.169 51.9385 231.874 49.4485 232.558 46.9545C232.639 46.6605 232.642 46.3455 232.714 45.7875ZM237.443 52.7815C236.935 50.7895 236.47 48.7975 235.912 46.8325C235.534 45.5025 235.354 45.4575 233.749 45.7715C233.112 48.2465 232.464 50.7655 231.82 53.2695C233.809 53.9825 235.521 53.3305 237.443 52.7815ZM237.12 42.0995C235.786 42.1055 234.721 42.1175 233.655 42.1155C231.997 42.1075 231.958 42.1485 232.152 43.8515C232.19 44.1855 232.242 44.5175 232.275 44.7675C233.854 44.7595 235.308 44.7535 236.921 44.7455C236.987 43.8655 237.045 43.0895 237.12 42.0995ZM235.763 54.7855C235.396 55.4185 235.366 55.9885 235.687 56.6625C236.412 55.7975 236.412 55.7975 235.763 54.7855ZM233.557 55.3225C233.349 55.7675 232.742 56.1625 233.307 56.8025C233.916 56.3445 233.895 55.8595 233.557 55.3225Z" fill="#952225"/>
<path fill-rule="evenodd" clip-rule="evenodd" d="M276.038 42.969C276.096 42.027 276.143 41.248 276.188 40.516C274.671 40.006 273.026 39.999 270.988 40.457C270.963 41.002 270.931 41.574 270.909 42.145C270.888 42.727 271.178 43.094 271.739 43.17C273.148 43.367 274.556 43.424 276.038 42.969Z" fill="#952225" stroke="#952225" stroke-miterlimit="10" stroke-linecap="round" stroke-linejoin="round"/>
<path fill-rule="evenodd" clip-rule="evenodd" d="M277.118 42.4082C277.072 43.1402 277.257 43.6052 277.922 44.0642C278.977 44.7962 280.054 45.6132 280.81 46.6282C282.141 48.4112 283.005 50.4252 282.296 52.7592C281.868 54.1692 281.518 55.6112 280.992 56.9862C280.516 58.2302 279.859 59.4102 279.265 60.6072C279.007 61.1292 278.733 61.6442 278.416 62.1292C277.414 63.6582 276.459 65.2252 275.35 66.6722C274.61 67.6412 273.346 67.7422 272.511 66.8752C271.439 65.7602 270.425 64.5372 269.638 63.2112C268.589 61.4452 267.684 59.5782 266.898 57.6802C265.75 54.9072 264.679 52.0772 265.225 48.9692C265.623 46.7052 266.586 44.8222 268.872 43.9042C269.196 43.7732 269.515 43.6312 269.853 43.4862C269.917 42.1852 269.978 40.9372 270.048 39.5132C272.41 39.2402 274.745 39.3472 277.173 39.4562C277.158 40.4882 277.178 41.4512 277.118 42.4082ZM276.449 49.2812C276.821 50.9472 277.488 52.5512 277.715 54.2342C276.979 54.5022 276.862 54.0912 276.684 53.7202C276.258 52.8312 276.159 52.8042 274.985 53.1152C275.101 53.6292 275.259 54.1422 275.325 54.6662C275.385 55.1372 275.233 55.5982 274.704 55.7112C274.155 55.8262 273.644 55.5682 273.552 55.0372C273.434 54.3572 273.52 53.6442 273.516 52.7832C273.448 52.7562 273.188 52.6562 272.937 52.5602C272.854 52.7202 272.781 52.7922 272.785 52.8632C272.814 53.3532 272.91 53.8452 272.887 54.3322C272.85 55.1132 272.373 55.6032 271.767 55.5822C271.192 55.5622 270.751 54.9882 270.815 54.2092C270.846 53.8222 271.042 53.4492 271.173 53.0722C271.254 52.8422 271.354 52.6152 271.48 52.3012C270.619 52.1802 270.458 52.7482 270.348 53.2352C270.187 53.9582 269.771 54.0262 269.051 53.8992C269.506 52.2082 269.959 50.6002 270.372 48.9832C270.779 47.3852 271.146 45.7782 271.532 44.1732C268.144 44.2142 266.237 47.1182 266.046 49.5172C265.9 51.3552 266.19 53.0952 266.77 54.7712C268.088 58.5872 269.681 62.2832 272.284 65.4452C272.397 65.5842 272.504 65.7282 272.631 65.8532C273.317 66.5292 274.007 66.6322 274.601 65.9212C275.599 64.7282 276.498 63.4442 277.373 62.1532C277.794 61.5322 278.003 60.7682 278.411 60.1362C279.842 57.9212 280.602 55.4602 281.304 52.9452C281.785 51.2152 281.561 49.6272 280.731 48.1502C279.672 46.2712 278.075 44.9142 276.053 44.0992C275.912 44.0422 275.717 44.1172 275.381 44.1402C275.745 45.9102 276.076 47.5992 276.449 49.2812ZM270.882 51.2612C272.557 52.0172 274.286 52.2832 276.229 52.0462C275.634 49.4092 275.051 46.8352 274.44 44.1282C273.865 44.1442 273.313 44.1572 272.72 44.1712C271.738 46.4742 271.435 48.8672 270.882 51.2612ZM276.189 40.5152C274.672 40.0052 273.027 39.9982 270.989 40.4562C270.964 41.0012 270.932 41.5732 270.91 42.1442C270.889 42.7262 271.179 43.0932 271.74 43.1692C273.149 43.3662 274.557 43.4232 276.039 42.9682C276.096 42.0272 276.144 41.2482 276.189 40.5152ZM271.677 54.8442C272.404 54.5472 272.344 54.0452 272.12 53.2762C271.505 53.8122 271.309 54.2282 271.677 54.8442ZM274.51 53.6032C274.09 54.3982 274.09 54.3982 274.684 54.8412C274.632 54.4762 274.581 54.1112 274.51 53.6032Z" fill="#952225"/>
<path fill-rule="evenodd" clip-rule="evenodd" d="M195.031 41.4082C195.067 42.4002 195.095 43.1762 195.127 44.0622C196.737 44.1322 198.188 44.1972 199.767 44.2672C199.811 44.0192 199.875 43.6892 199.927 43.3592C200.189 41.6642 200.151 41.6232 198.493 41.5602C197.428 41.5232 196.365 41.4692 195.031 41.4082Z" fill="#952225" stroke="#952225" stroke-miterlimit="10" stroke-linecap="round" stroke-linejoin="round"/>
<path fill-rule="evenodd" clip-rule="evenodd" d="M194.106 41.4631C194.157 40.7251 194.453 40.4201 195.07 40.4611C196.666 40.5681 198.263 40.6781 199.856 40.8201C200.918 40.9161 201.063 41.0901 201.047 42.1521C201.037 42.8221 200.973 43.4922 200.929 44.1602C200.885 44.8052 201.096 45.2231 201.74 45.5211C205.312 47.1811 206.948 52.5701 205.525 55.9181C204.549 58.2111 203.802 60.6171 202.305 62.6451C201.064 64.3271 199.768 65.9811 198.374 67.5361C197.403 68.6201 196.188 68.5691 194.997 67.7331C194.144 67.1351 193.87 66.1612 193.308 65.3802C191.686 63.1262 190.866 60.5131 189.837 57.9991C188.914 55.7471 188.539 53.3581 188.7 50.9111C188.857 48.5031 189.64 46.4541 191.959 45.2881C192.594 44.9681 193.204 44.5951 193.98 44.1591C194.017 43.3301 194.042 42.3941 194.106 41.4631ZM199.396 46.4371C199.98 48.9581 200.584 51.4721 201.158 53.9961C201.208 54.2131 201.072 54.4731 201.022 54.7111C200.773 54.5981 200.421 54.5492 200.293 54.3542C199.916 53.7742 199.467 53.5901 198.799 53.8361C198.913 54.5121 199.049 55.1581 199.127 55.8151C199.192 56.3461 199.022 56.8071 198.431 56.9261C197.879 57.0351 197.345 56.6991 197.278 56.0651C197.2 55.3331 197.319 54.5811 197.357 53.7151C197.213 53.6921 196.978 53.6521 196.679 53.6021C196.682 54.3171 196.738 54.9751 196.672 55.6201C196.589 56.4211 196.286 56.6791 195.706 56.6081C195.014 56.5241 194.661 56.1841 194.727 55.4301C194.786 54.7371 195.021 54.0571 195.186 53.3461C194.616 53.0261 194.616 53.0261 193.791 54.2481C192.805 53.8341 192.813 53.8361 193.069 52.9571C193.827 50.3571 194.576 47.7541 195.324 45.1681C193.358 45.0741 191.106 46.5331 190.298 48.3381C189.493 50.1311 189.414 51.9881 189.778 53.8421C190.523 57.6251 191.67 61.2741 193.866 64.5141C194.139 64.9161 194.281 65.4092 194.537 65.8242C195.61 67.5742 196.82 67.8361 198.181 66.3011C200.253 63.9591 202.309 61.5821 203.437 58.5841C203.893 57.3731 204.424 56.1841 204.818 54.9531C205.667 52.3031 204.799 48.9301 202.017 46.8771C201.442 46.4511 200.817 46.0941 200.207 45.7191C199.984 45.5821 199.737 45.4891 199.288 45.2701C199.337 45.8301 199.328 46.1421 199.396 46.4371ZM199.884 52.7812C199.338 50.2522 198.792 47.7111 198.255 45.2131C196.661 44.8341 196.481 44.8712 196.051 46.1862C195.413 48.1272 194.868 50.1001 194.282 52.0691C196.181 52.6931 197.866 53.4162 199.884 52.7812ZM195.126 44.0621C196.736 44.1321 198.187 44.1971 199.766 44.2671C199.81 44.0191 199.874 43.6891 199.926 43.3591C200.188 41.6641 200.15 41.6231 198.492 41.5601C197.428 41.5231 196.364 41.4681 195.03 41.4081C195.067 42.4001 195.094 43.1761 195.126 44.0621ZM195.884 56.0171C196.231 55.3571 196.224 54.7871 195.882 54.1381C195.194 55.1231 195.194 55.1231 195.884 56.0171ZM198.255 56.2541C198.846 55.6351 198.254 55.2151 198.065 54.7641C197.706 55.2871 197.664 55.7691 198.255 56.2541Z" fill="#952225"/>
<path fill-rule="evenodd" clip-rule="evenodd" d="M309.899 40.9104C309.813 39.9694 309.742 39.1933 309.674 38.4633C311.176 37.9063 312.82 37.8523 314.87 38.2503C314.913 38.7953 314.961 39.3654 315 39.9364C315.038 40.5144 314.76 40.8913 314.2 40.9853C312.797 41.2203 311.391 41.3204 309.899 40.9104Z" fill="#952225" stroke="#952225" stroke-miterlimit="10" stroke-linecap="round" stroke-linejoin="round"/>
<path fill-rule="evenodd" clip-rule="evenodd" d="M308.658 37.4335C311.083 37.2515 313.414 37.0785 315.783 37.2795C315.895 38.7015 315.993 39.9455 316.096 41.2445C316.439 41.3795 316.762 41.5145 317.09 41.6335C319.401 42.4835 320.42 44.3365 320.885 46.5865C321.523 49.6765 320.537 52.5375 319.471 55.3445C318.741 57.2645 317.891 59.1585 316.896 60.9535C316.148 62.3035 315.171 63.5555 314.132 64.7015C313.323 65.5925 312.058 65.5275 311.289 64.5825C310.137 63.1685 309.135 61.6315 308.089 60.1315C307.759 59.6565 307.469 59.1495 307.197 58.6375C306.566 57.4575 305.875 56.2995 305.363 55.0675C304.798 53.7105 304.404 52.2805 303.934 50.8835C303.157 48.5705 303.96 46.5325 305.238 44.7095C305.963 43.6745 307.017 42.8245 308.05 42.0635C308.7 41.5835 308.87 41.1125 308.803 40.3815C308.713 39.4265 308.704 38.4635 308.658 37.4335ZM310.593 42.0605C310.255 42.0445 310.06 41.9785 309.919 42.0385C307.924 42.9115 306.367 44.3155 305.364 46.2265C304.578 47.7265 304.399 49.3225 304.933 51.0375C305.707 53.5275 306.541 55.9675 308.036 58.1395C308.464 58.7605 308.695 59.5185 309.135 60.1235C310.047 61.3895 310.986 62.6445 312.019 63.8085C312.632 64.4995 313.32 64.3785 313.985 63.6815C314.108 63.5525 314.211 63.4065 314.319 63.2655C316.828 60.0255 318.31 56.2835 319.515 52.4315C320.044 50.7385 320.283 48.9905 320.081 47.1565C319.819 44.7675 317.825 41.9185 314.439 41.9785C314.872 43.5725 315.286 45.1685 315.741 46.7515C316.202 48.3565 316.702 49.9525 317.207 51.6265C316.492 51.7745 316.073 51.7205 315.892 51.0015C315.769 50.5195 315.591 49.9545 314.734 50.1035C314.869 50.4145 314.975 50.6365 315.063 50.8655C315.206 51.2365 315.412 51.6055 315.456 51.9905C315.542 52.7655 315.118 53.3535 314.544 53.3905C313.939 53.4295 313.448 52.9555 313.389 52.1735C313.351 51.6875 313.432 51.1935 313.445 50.7025C313.448 50.6345 313.373 50.5615 313.285 50.4035C313.037 50.5085 312.781 50.6165 312.713 50.6435C312.735 51.5045 312.842 52.2155 312.744 52.8975C312.667 53.4305 312.164 53.7065 311.612 53.6045C311.08 53.5065 310.915 53.0535 310.96 52.5795C311.01 52.0545 311.153 51.5385 311.255 51.0205C310.071 50.7435 309.973 50.7765 309.572 51.6745C309.406 52.0495 309.301 52.4635 308.557 52.2175C308.733 50.5275 309.354 48.9065 309.675 47.2295C309.998 45.5415 310.279 43.8395 310.593 42.0605ZM313.249 42.0155C312.657 42.0175 312.103 42.0195 311.529 42.0215C310.997 44.7465 310.492 47.3355 309.974 49.9905C311.923 50.1685 313.645 49.8515 315.295 49.0455C314.673 46.6725 314.3 44.2875 313.249 42.0155ZM309.898 40.9105C311.39 41.3205 312.796 41.2215 314.2 40.9845C314.759 40.8905 315.038 40.5135 315 39.9355C314.961 39.3655 314.913 38.7945 314.87 38.2495C312.82 37.8515 311.176 37.9055 309.674 38.4625C309.741 39.1935 309.812 39.9695 309.898 40.9105ZM314.119 51.0955C313.919 51.8705 313.875 52.3745 314.61 52.6525C314.958 52.0235 314.749 51.6155 314.119 51.0955ZM311.604 52.7385C312.184 52.2775 312.184 52.2775 311.74 51.4965C311.684 52.0045 311.643 52.3715 311.604 52.7385Z" fill="#952225"/>
<path fill-rule="evenodd" clip-rule="evenodd" d="M389.785 23.4043C389.92 24.3883 390.027 25.1563 390.148 26.0333C388.573 26.3813 387.154 26.6953 385.612 27.0353C385.526 26.7993 385.406 26.4863 385.298 26.1683C384.748 24.5433 384.777 24.4943 386.401 24.1503C387.442 23.9293 388.482 23.6933 389.785 23.4043Z" fill="#952225" stroke="#952225" stroke-miterlimit="10" stroke-linecap="round" stroke-linejoin="round"/>
<path fill-rule="evenodd" clip-rule="evenodd" d="M391.292 25.9295C392.132 26.2265 392.795 26.4905 393.478 26.6955C395.962 27.4455 397.086 29.3285 397.657 31.6745C398.237 34.0595 398.277 36.4755 397.757 38.8545C397.177 41.5065 396.821 44.2215 395.61 46.7215C395.19 47.5865 395.089 48.5925 394.35 49.3285C393.322 50.3575 392.133 50.6175 390.991 49.7175C389.349 48.4245 387.789 47.0205 386.276 45.5765C384.453 43.8365 383.301 41.5945 381.947 39.5045C379.968 36.4495 380.652 30.8615 383.885 28.6115C384.467 28.2055 384.602 27.7565 384.449 27.1315C384.289 26.4795 384.111 25.8305 383.986 25.1725C383.788 24.1275 383.901 23.9325 384.931 23.6545C386.476 23.2405 388.029 22.8575 389.583 22.4785C390.185 22.3305 390.527 22.5785 390.705 23.2985C390.927 24.2055 391.114 25.1215 391.292 25.9295ZM386.256 27.9395C385.85 28.2325 385.623 28.3695 385.427 28.5415C384.891 29.0165 384.338 29.4775 383.844 29.9925C381.457 32.4945 381.182 35.9675 382.475 38.4315C383.075 39.5765 383.803 40.6565 384.462 41.7715C386.089 44.5275 388.523 46.5175 390.966 48.4665C392.57 49.7455 393.717 49.2795 394.474 47.3685C394.655 46.9155 394.708 46.4055 394.909 45.9625C396.514 42.3945 397.016 38.6015 397.098 34.7475C397.139 32.8585 396.742 31.0425 395.64 29.4135C394.531 27.7745 392.063 26.7255 390.141 27.1555C391.324 29.5755 392.51 32.0105 393.704 34.4405C394.106 35.2625 394.115 35.2585 393.216 35.8365C392.193 34.7735 392.193 34.7735 391.687 35.1885C391.97 35.8625 392.32 36.4875 392.498 37.1615C392.692 37.8955 392.402 38.2885 391.734 38.4915C391.176 38.6595 390.833 38.4585 390.614 37.6825C390.438 37.0595 390.382 36.4015 390.26 35.6985C389.974 35.8005 389.749 35.8785 389.613 35.9275C389.799 36.7715 390.046 37.4915 390.094 38.2265C390.136 38.8655 389.669 39.2875 389.107 39.2735C388.504 39.2595 388.257 38.8345 388.229 38.3005C388.193 37.6405 388.215 36.9805 388.211 36.2925C387.511 36.1655 387.101 36.4235 386.828 37.0625C386.737 37.2755 386.398 37.3845 386.173 37.5395C386.084 37.3125 385.904 37.0805 385.915 36.8575C386.046 34.2755 386.209 31.6935 386.35 29.1115C386.367 28.8065 386.304 28.5005 386.256 27.9395ZM392.357 33.7755C391.439 31.9355 390.564 30.0875 389.602 28.2855C388.953 27.0665 388.767 27.0585 387.263 27.7075C387.164 30.2585 387.064 32.8575 386.963 35.4435C389.059 35.7195 390.593 34.7195 392.357 33.7755ZM389.785 23.4045C388.482 23.6935 387.442 23.9295 386.4 24.1505C384.777 24.4945 384.748 24.5435 385.297 26.1685C385.405 26.4865 385.525 26.7995 385.611 27.0355C387.153 26.6955 388.572 26.3815 390.147 26.0335C390.027 25.1565 389.919 24.3885 389.785 23.4045ZM391.138 36.0925C390.913 36.7875 391.004 37.3505 391.46 37.9425C391.984 36.9415 391.984 36.9415 391.138 36.0925ZM389.094 37.0825C388.987 37.5615 388.475 38.0765 389.163 38.5825C389.663 38.0065 389.539 37.5355 389.094 37.0825Z" fill="#952225"/>
<path fill-rule="evenodd" clip-rule="evenodd" d="M426.21 15.2994C425.988 14.3814 425.806 13.6234 425.634 12.9104C424.035 12.8674 422.46 13.3424 420.646 14.3794C420.782 14.9084 420.919 15.4634 421.066 16.0164C421.215 16.5774 421.6 16.8424 422.161 16.7524C423.565 16.5274 424.928 16.1684 426.21 15.2994Z" fill="#952225" stroke="#952225" stroke-miterlimit="10" stroke-linecap="round" stroke-linejoin="round"/>
<path fill-rule="evenodd" clip-rule="evenodd" d="M427.079 14.4453C427.25 15.1603 427.562 15.5513 428.334 15.7953C429.556 16.1843 430.826 16.6504 431.847 17.3994C433.642 18.7134 435.059 20.3853 435.066 22.8253C435.071 24.3003 435.159 25.7803 435.06 27.2473C434.97 28.5773 434.688 29.8954 434.47 31.2164C434.377 31.7884 434.266 32.3634 434.105 32.9194C433.596 34.6754 433.144 36.4544 432.507 38.1634C432.083 39.3064 430.905 39.7724 429.854 39.1884C428.501 38.4364 427.172 37.5654 426.031 36.5284C424.511 35.1494 423.097 33.6304 421.79 32.0444C419.878 29.7294 418.024 27.3373 417.635 24.2083C417.352 21.9273 417.72 19.8454 419.636 18.2984C419.908 18.0774 420.17 17.8494 420.452 17.6104C420.132 16.3464 419.824 15.1354 419.473 13.7534C421.652 12.8024 423.915 12.2164 426.268 11.6104C426.553 12.5994 426.856 13.5133 427.079 14.4453ZM428.454 21.2133C429.299 22.6973 430.408 24.0334 431.117 25.5764C430.492 26.0474 430.26 25.6914 429.981 25.3884C429.313 24.6654 429.21 24.6653 428.177 25.3083C428.441 25.7653 428.742 26.2084 428.958 26.6894C429.153 27.1254 429.143 27.6094 428.671 27.8734C428.18 28.1444 427.616 28.0474 427.371 27.5644C427.06 26.9514 426.932 26.2444 426.676 25.4214C426.603 25.4154 426.324 25.3964 426.058 25.3784C426.026 25.5544 425.976 25.6484 426.001 25.7124C426.171 26.1734 426.407 26.6144 426.527 27.0854C426.72 27.8454 426.41 28.4524 425.824 28.6104C425.267 28.7604 424.679 28.3383 424.511 27.5753C424.428 27.1983 424.505 26.7843 424.521 26.3853C424.53 26.1393 424.56 25.8954 424.587 25.5574C423.727 25.6944 423.74 26.2844 423.778 26.7844C423.837 27.5204 423.458 27.7084 422.733 27.7964C422.672 26.0484 422.633 24.3783 422.554 22.7083C422.474 21.0623 422.354 19.4194 422.252 17.7704C419.024 18.8034 418.054 22.1414 418.573 24.4874C418.973 26.2904 419.761 27.8684 420.806 29.3004C423.186 32.5604 425.792 35.6284 429.208 37.8864C429.357 37.9864 429.502 38.0934 429.66 38.1754C430.515 38.6204 431.204 38.5153 431.562 37.6613C432.166 36.2273 432.65 34.7373 433.107 33.2473C433.328 32.5283 433.304 31.7394 433.508 31.0134C434.227 28.4764 434.232 25.9003 434.163 23.2903C434.116 21.4953 433.436 20.0423 432.209 18.8763C430.646 17.3903 428.72 16.5604 426.549 16.3744C426.398 16.3604 426.232 16.4894 425.918 16.6104C426.793 18.1974 427.604 19.7173 428.454 21.2133ZM423.714 24.7384C425.537 24.9704 427.268 24.7184 429.058 23.9224C427.713 21.5744 426.402 19.2853 425.023 16.8773C424.478 17.0593 423.955 17.2364 423.392 17.4224C423.128 19.9124 423.541 22.2894 423.714 24.7384ZM425.635 12.9104C424.036 12.8674 422.461 13.3424 420.647 14.3794C420.783 14.9084 420.92 15.4634 421.067 16.0164C421.216 16.5774 421.601 16.8423 422.162 16.7523C423.566 16.5273 424.93 16.1683 426.212 15.2993C425.99 14.3813 425.807 13.6234 425.635 12.9104ZM425.526 27.9314C426.134 27.4334 425.929 26.9704 425.489 26.3004C425.059 26.9944 424.994 27.4514 425.526 27.9314ZM427.87 25.9164C427.702 26.7974 427.702 26.7974 428.399 27.0474C428.244 26.7134 428.086 26.3794 427.87 25.9164Z" fill="#952225"/>
<path fill-rule="evenodd" clip-rule="evenodd" d="M347.453 33.0825C347.683 34.0495 347.862 34.8035 348.066 35.6665C349.66 35.4205 351.096 35.1995 352.657 34.9595C352.652 34.7075 352.65 34.3715 352.636 34.0375C352.562 32.3225 352.516 32.2895 350.879 32.5555C349.827 32.7245 348.773 32.8815 347.453 33.0825Z" fill="#952225" stroke="#952225" stroke-miterlimit="10" stroke-linecap="round" stroke-linejoin="round"/>
<path fill-rule="evenodd" clip-rule="evenodd" d="M346.556 33.3164C346.46 32.5824 346.692 32.2265 347.304 32.1465C348.891 31.9375 350.478 31.7325 352.068 31.5605C353.129 31.4475 353.305 31.5875 353.499 32.6325C353.62 33.2925 353.689 33.9604 353.775 34.6264C353.859 35.2654 354.147 35.6345 354.838 35.8005C358.666 36.7285 361.325 41.6935 360.585 45.2535C360.078 47.6925 359.817 50.1984 358.746 52.4814C357.858 54.3744 356.912 56.2495 355.85 58.0475C355.111 59.2995 353.909 59.4884 352.578 58.9024C351.623 58.4804 351.164 57.5824 350.46 56.9254C348.427 55.0304 347.111 52.6305 345.61 50.3665C344.263 48.3375 343.428 46.0695 343.106 43.6375C342.789 41.2455 343.155 39.0824 345.2 37.4854C345.76 37.0454 346.285 36.5615 346.961 35.9815C346.834 35.1665 346.675 34.2444 346.556 33.3164ZM352.718 37.1605C353.784 39.5155 354.869 41.8655 355.926 44.2245C356.016 44.4275 355.934 44.7084 355.934 44.9544C355.665 44.8894 355.311 44.9115 355.149 44.7455C354.666 44.2495 354.188 44.1575 353.582 44.5305C353.827 45.1695 354.087 45.7785 354.291 46.4055C354.458 46.9155 354.383 47.4014 353.827 47.6314C353.307 47.8464 352.719 47.6235 352.528 47.0125C352.307 46.3115 352.276 45.5475 352.144 44.6945C351.997 44.7005 351.76 44.7065 351.458 44.7165C351.6 45.4175 351.784 46.0505 351.846 46.6945C351.922 47.4975 351.676 47.8095 351.093 47.8525C350.398 47.9055 349.985 47.6434 349.901 46.8894C349.823 46.1984 349.923 45.4875 349.944 44.7585C349.323 44.5535 349.323 44.5534 348.754 45.9164C347.705 45.7014 347.714 45.7014 347.793 44.7914C348.027 42.0924 348.251 39.3934 348.479 36.7094C346.533 37.0044 344.61 38.8754 344.17 40.8034C343.732 42.7194 344.018 44.5574 344.74 46.3034C346.212 49.8664 348.051 53.2215 350.839 55.9655C351.186 56.3095 351.421 56.7625 351.753 57.1215C353.149 58.6255 354.387 58.6464 355.42 56.8734C356.992 54.1724 358.542 51.4374 359.062 48.2774C359.272 47.0004 359.56 45.7304 359.706 44.4454C360.019 41.6794 358.507 38.5415 355.377 37.0745C354.73 36.7695 354.046 36.5415 353.375 36.2935C353.131 36.2035 352.869 36.1585 352.386 36.0335C352.54 36.5745 352.593 36.8825 352.718 37.1605ZM354.439 43.2855C353.41 40.9125 352.375 38.5235 351.36 36.1815C349.723 36.1225 349.553 36.1954 349.388 37.5664C349.144 39.5954 348.995 41.6364 348.807 43.6834C350.791 43.9244 352.584 44.3015 354.439 43.2855ZM348.065 35.6664C349.659 35.4204 351.095 35.1994 352.656 34.9594C352.651 34.7074 352.649 34.3714 352.635 34.0374C352.561 32.3224 352.515 32.2895 350.878 32.5555C349.826 32.7255 348.773 32.8815 347.452 33.0825C347.682 34.0495 347.861 34.8024 348.065 35.6664ZM351.15 47.2405C351.362 46.5255 351.244 45.9675 350.781 45.4005C350.299 46.5005 350.299 46.5005 351.15 47.2405ZM353.522 47.0075C353.981 46.2865 353.318 45.9895 353.043 45.5855C352.795 46.1685 352.849 46.6505 353.522 47.0075Z" fill="#952225"/>
</svg>
