<svg width="2140" height="1050" viewBox="0 0 2140 1050" fill="none" xmlns="http://www.w3.org/2000/svg">
<g clip-path="url(#clip0_38_4344)">
<g clip-path="url(#clip1_38_4344)">
<mask id="mask0_38_4344" style="mask-type:luminance" maskUnits="userSpaceOnUse" x="270" y="82" width="1600" height="2300">
<path d="M1870 82H270V2382H1870V82Z" fill="white"/>
</mask>
<g mask="url(#mask0_38_4344)">
<path d="M2277.92 2598.07C2268.41 2617.62 2262.37 2628.1 2262.37 2628.1C2262.37 2628.1 2057.81 2921.17 1080.69 2917.59C135.169 2914.12 -148.109 2634.9 -165.42 2616.87L-110.201 2470.69L-37.7859 2278.82L170.322 1727.59C556.888 706.676 1674.93 848.92 1950.39 1730.41L2159.31 2283.85L2227.25 2463.86L2277.92 2598.07Z" fill="#E94647" stroke="#1E1E1E" stroke-width="15" stroke-miterlimit="10"/>
<path d="M513.209 1011.26C457.027 1371.45 678.891 1529.08 1060.32 1526.84C1476.33 1524.39 1636.8 1368.96 1626.81 1034.67C1608.36 417.344 615.577 354.962 513.209 1011.26Z" fill="#FEC8A4"/>
<path d="M615.086 1121.97C674.141 1121.97 722.014 1080.01 722.014 1028.25C722.014 976.485 674.141 934.524 615.086 934.524C556.031 934.524 508.158 976.485 508.158 1028.25C508.158 1080.01 556.031 1121.97 615.086 1121.97Z" fill="#FB8C6E"/>
<path d="M1544.67 1130.38C1603.72 1130.38 1651.59 1088.42 1651.59 1036.66C1651.59 984.899 1603.72 942.938 1544.67 942.938C1485.61 942.938 1437.74 984.899 1437.74 1036.66C1437.74 1088.42 1485.61 1130.38 1544.67 1130.38Z" fill="#FB8C6E"/>
<path fill-rule="evenodd" clip-rule="evenodd" d="M1890.86 1920.79C1891.16 1924.76 1995.95 1747.36 1960.07 1626.8C1924.08 1505.89 1792.11 1380.58 1798.56 1384.55C1821.7 1398.83 1857.63 1400.54 1874.13 1395.34C1875.47 1394.92 1875.85 1393.22 1874.83 1392.25C1858.1 1376.33 1749.66 1271.54 1760.42 1233.91C1760.87 1232.36 1759.88 1230.8 1761.47 1230.91C1816.01 1234.92 1820.68 1216.15 1817.09 1212.48C1740.48 1134.26 1614.13 919.934 1591.28 859.617C1585.37 844.017 1556.18 872.803 1569.86 916.819C1582.44 957.342 1633.58 1029.73 1620.93 1060.35C1561.06 1205.2 1383.11 1155.27 1230.72 1171.08C1182.63 1176.06 1157.79 1219.83 1073.02 1217C968.848 1213.54 980.393 1167.43 931.235 1159.38C926.043 1157.75 483.308 1325.79 542.911 987.781C547.907 959.446 568.751 924.567 580.877 888.695C593.476 851.426 576.143 803.847 565.539 828.736C500.189 982.112 351.09 1166.56 288.943 1214.4C273.86 1226.01 326.723 1247.63 336.401 1234.49C281.691 1308.77 210.253 1392.05 162.182 1424.74C153.762 1430.47 197.371 1429.41 273.33 1401.8C130.66 1528.83 43.904 1778.48 260.18 2061.15C262.824 2064.6 268.335 2062.96 268.595 2058.61C270.866 2020.7 283.883 1909.09 358.705 1874.17C320.04 1941.24 275.905 2062.52 381.369 2161.06C384.712 2164.19 390.18 2161.6 389.9 2157.03C388.73 2137.96 388.49 2099.7 400.227 2059.03C434.799 2203.03 577.334 2294.61 702.586 2359.21C704.256 2360.07 705.927 2358.03 704.777 2356.54C666.659 2307.24 595.705 2284.47 651.601 2215.03C643.839 2288.99 769.872 2358.8 884.889 2430.4C975.625 2486.89 990.532 2559.14 992.784 2587.11C993.241 2592.78 999.186 2596.28 1004.39 2593.97C1069.29 2565.08 1396.13 2412.26 1524.43 2210.01C1525.11 2208.64 1540.78 2278.11 1453.22 2346.57C1452.43 2347.18 1453.16 2348.43 1454.06 2348C1586.18 2285.83 1939.06 2123.43 1838.77 1791.95C1852.33 1836.75 1884.4 1836.83 1890.86 1920.79Z" fill="white" stroke="#1E1E1E" stroke-width="15" stroke-miterlimit="10"/>
<path d="M759.16 831.673C759.16 831.673 817.297 750.784 945.788 766.105C945.788 766.105 952.487 653.635 834.594 685.675C720.398 716.709 744.975 818.367 759.16 831.673Z" fill="white" stroke="#1E1E1E" stroke-width="15" stroke-miterlimit="10"/>
<path d="M1417.26 861.804C1417.26 861.804 1369.13 774.586 1239.73 774.547C1239.73 774.547 1246.43 662.077 1359.69 707.883C1469.39 752.253 1432.92 850.276 1417.26 861.804Z" fill="white" stroke="#1E1E1E" stroke-width="15" stroke-miterlimit="10"/>
<path d="M950.222 934.524C950.222 934.524 878.624 888.302 804.227 912.289C796.549 914.765 788.565 916.282 780.505 916.614C773.05 916.92 765.162 916.266 761.125 912.876C761.125 912.876 767.934 914.833 791.266 902.111C815.785 888.742 841.176 834.455 901.064 843.982C948.428 851.517 950.222 934.524 950.222 934.524Z" fill="#1E1E1E"/>
<path d="M871.477 865.065C871.477 865.065 908.555 838.512 920.755 880.135C920.755 880.135 882.002 863.63 871.477 865.065Z" fill="white"/>
<path d="M1211.08 951.747C1211.08 951.747 1282.68 905.525 1357.08 929.512C1364.76 931.988 1372.74 933.505 1380.8 933.837C1388.26 934.143 1396.15 933.489 1400.18 930.099C1400.18 930.099 1393.37 932.056 1370.04 919.334C1345.52 905.965 1320.13 851.678 1260.24 861.205C1212.88 868.74 1211.08 951.747 1211.08 951.747Z" fill="#1E1E1E"/>
<path d="M1293.55 884.11C1293.55 884.11 1256.47 857.557 1244.27 899.18C1244.27 899.18 1283.02 882.674 1293.55 884.11Z" fill="white"/>
<path d="M296.075 983.83C293.232 975.168 303.418 968.192 310.49 973.945C344.378 1001.51 415.128 1045.01 524.608 1045.53C631.73 1046.04 804.621 940.234 941.393 991.333C1078.16 1042.43 1070.77 1132.24 1070.77 1132.24C1070.77 1132.24 1016.69 1317.66 687.659 1302.17C421.461 1289.64 323.703 1068.02 296.075 983.83Z" fill="white" stroke="#1E1E1E" stroke-width="15" stroke-miterlimit="10"/>
<path d="M1848.13 991.121C1852.28 979.898 1839.41 970.134 1829.68 977.11C1789.99 1005.59 1714.55 1047.6 1617.07 1045.53C1532.49 1043.73 1337.06 940.234 1200.29 991.333C1063.52 1042.43 1070.91 1132.24 1070.91 1132.24C1070.91 1132.24 1122.1 1318.58 1451.13 1303.09C1710.07 1290.9 1815.12 1080.29 1848.13 991.121Z" fill="white" stroke="#1E1E1E" stroke-width="15" stroke-miterlimit="10"/>
<path d="M1078.68 1130.68C1162.7 1130.68 1230.82 1072.52 1230.82 1000.79C1230.82 929.048 1162.7 870.894 1078.68 870.894C994.656 870.894 926.541 929.048 926.541 1000.79C926.541 1072.52 994.656 1130.68 1078.68 1130.68Z" fill="#FFA17B" stroke="#1E1E1E" stroke-width="15" stroke-miterlimit="10"/>
<path d="M1107.99 907.574C1107.99 907.574 1160.5 895.998 1167.15 943.075C1173.8 990.151 1071.54 940.813 1107.99 907.574Z" fill="#FFC9AA"/>
<path d="M1654.66 977.405C1642.45 962.254 1604.96 913.006 1594.72 868.437C1582.42 814.966 1500.67 694.614 1379.78 622.825C1258.85 551.036 1095.62 511.033 855.683 583.678C638.461 649.475 519.194 904.703 498.536 952.495C474.825 934.804 454.139 914.603 437.076 891.605C383.091 818.817 400.154 683.4 461.215 615.891C515.028 556.428 619.516 435.791 789.744 384.916C1125.66 284.509 1345.39 339.463 1486.66 406.915C1612.55 467.034 1739.15 632.012 1748.37 797.132C1755.01 916.573 1678.37 965.279 1654.66 977.405Z" fill="white" stroke="#1E1E1E" stroke-width="15" stroke-miterlimit="10"/>
</g>
</g>
</g>
<defs>
<clipPath id="clip0_38_4344">
<rect width="2140" height="1050" fill="white"/>
</clipPath>
<clipPath id="clip1_38_4344">
<rect width="1600" height="2300" fill="white" transform="translate(270 82)"/>
</clipPath>
</defs>
</svg>
