<svg width="243" height="274" viewBox="0 0 243 274" fill="none" xmlns="http://www.w3.org/2000/svg">
<path d="M122.513 153.921C121.007 153.921 119.492 153.723 117.999 153.323C113.527 152.124 109.789 149.256 107.475 145.246C102.696 136.969 105.541 126.348 113.819 121.568C122.098 116.794 132.721 119.636 137.498 127.913C142.276 136.192 139.43 146.814 131.153 151.591C128.481 153.132 125.516 153.921 122.513 153.921ZM122.471 127.928C121.003 127.928 119.519 128.301 118.159 129.085C114.028 131.47 112.607 136.772 114.992 140.904L114.993 140.905C116.148 142.906 118.013 144.337 120.246 144.936C122.478 145.534 124.81 145.225 126.811 144.071C130.943 141.686 132.363 136.384 129.979 132.252C128.378 129.481 125.462 127.928 122.471 127.928Z" fill="white"/>
<path d="M110.123 119.51C109.701 119.51 109.278 119.448 108.866 119.325L91.753 114.15C90.343 113.724 89.247 112.612 88.839 111.199L74.7101 62.2589C74.1561 60.3419 74.9811 58.2928 76.7101 57.2958C78.4371 56.2988 80.624 56.6049 82.009 58.0449L117.327 94.7499C118.347 95.8109 118.761 97.3159 118.425 98.7499L114.349 116.159C114.076 117.326 113.332 118.328 112.293 118.928C111.627 119.313 110.878 119.51 110.123 119.51ZM96.526 106.523L106.952 109.676L109.435 99.0689L87.918 76.7059L96.526 106.523Z" fill="white"/>
<path d="M84.7236 153.155C84.3756 153.155 84.0266 153.114 83.6806 153.028L34.2336 140.793C32.2966 140.314 30.9355 138.575 30.9355 136.579C30.9355 134.584 32.2966 132.845 34.2336 132.365L83.6806 120.131C85.1126 119.776 86.6196 120.171 87.6936 121.179L100.733 133.413C101.607 134.233 102.103 135.379 102.103 136.578C102.103 137.777 101.607 138.923 100.733 139.744L87.6936 151.979C86.8806 152.743 85.8146 153.155 84.7236 153.155ZM53.3506 136.579L83.4756 144.033L91.4196 136.579L83.4756 129.126L53.3506 136.579Z" fill="white"/>
<path d="M78.881 216.445C78.138 216.445 77.39 216.255 76.712 215.863C74.983 214.866 74.158 212.817 74.712 210.9L88.841 161.961C89.249 160.547 90.346 159.436 91.754 159.01L108.868 153.834C110.013 153.488 111.254 153.629 112.295 154.23C113.333 154.829 114.078 155.831 114.351 156.999L118.427 174.408C118.763 175.842 118.35 177.347 117.329 178.408L82.011 215.113C81.169 215.988 80.032 216.445 78.881 216.445ZM96.527 166.637L87.919 196.452L109.436 174.09L106.953 163.483L96.527 166.637Z" fill="white"/>
<path d="M166.092 216.445C164.941 216.445 163.804 215.988 162.963 215.114L127.645 178.409C126.623 177.348 126.21 175.843 126.546 174.409L130.622 157C130.895 155.833 131.639 154.83 132.678 154.231C133.718 153.63 134.956 153.49 136.105 153.835L153.22 159.011C154.628 159.437 155.725 160.549 156.133 161.962L170.261 210.901C170.815 212.818 169.99 214.867 168.261 215.864C167.583 216.254 166.835 216.445 166.092 216.445ZM135.536 174.09L157.054 196.453L148.446 166.637L138.019 163.483L135.536 174.09Z" fill="white"/>
<path d="M160.246 153.155C159.156 153.155 158.091 152.744 157.276 151.98L144.237 139.745C143.363 138.925 142.867 137.778 142.867 136.579C142.867 135.379 143.363 134.234 144.237 133.414L157.276 121.18C158.35 120.171 159.86 119.775 161.289 120.132L210.737 132.366C212.674 132.845 214.035 134.584 214.035 136.58C214.035 138.576 212.674 140.315 210.737 140.794L161.289 153.029C160.943 153.113 160.594 153.155 160.246 153.155ZM153.551 136.579L161.495 144.033L191.621 136.579L161.495 129.126L153.551 136.579Z" fill="white"/>
<path d="M134.846 119.51C134.091 119.51 133.342 119.313 132.676 118.928C131.637 118.328 130.893 117.326 130.62 116.159L126.544 98.7502C126.208 97.3162 126.621 95.8112 127.643 94.7502L162.961 58.0451C164.345 56.6051 166.529 56.2951 168.26 57.2961C169.988 58.2931 170.814 60.3421 170.26 62.2591L156.132 111.199C155.724 112.613 154.627 113.724 153.218 114.15L136.103 119.325C135.691 119.448 135.268 119.51 134.846 119.51ZM135.535 99.0681L138.018 109.675L148.445 106.522L157.053 76.7051L135.535 99.0681Z" fill="white"/>
<path d="M122.642 77.9858C122.637 77.9858 122.631 77.9858 122.626 77.9858C120.229 77.9768 118.293 76.0258 118.301 73.6288L118.511 15.9559C118.52 13.5639 120.462 11.6309 122.852 11.6309C122.857 11.6309 122.863 11.6309 122.868 11.6309C125.265 11.6389 127.201 13.5899 127.193 15.9879L126.983 73.6609C126.974 76.0529 125.032 77.9858 122.642 77.9858Z" fill="white"/>
<path d="M122.688 79.0458C121.577 79.0458 120.466 78.6218 119.619 77.7738L99.4302 57.5848C97.7342 55.8908 97.7342 53.1418 99.4302 51.4468C101.123 49.7508 103.875 49.7508 105.568 51.4468L122.688 68.5658L139.412 51.8428C141.106 50.1468 143.857 50.1468 145.55 51.8428C147.246 53.5378 147.246 56.2868 145.55 57.9808L125.757 77.7738C124.91 78.6218 123.798 79.0458 122.688 79.0458Z" fill="white"/>
<path d="M123.121 50.8641C121.97 50.8641 120.866 50.4061 120.052 49.5921L110.026 39.5651C108.33 37.8691 108.33 35.1211 110.026 33.4271C111.722 31.7311 114.471 31.7311 116.164 33.4271L123.121 40.3841L130.362 33.1431C132.056 31.4471 134.805 31.4471 136.5 33.1431C138.196 34.8381 138.196 37.5851 136.5 39.2811L126.19 49.5921C125.376 50.4061 124.272 50.8641 123.121 50.8641Z" fill="white"/>
<path d="M114.2 4.78797C116.843 0.208965 122.698 -1.35903 127.277 1.28397C131.856 3.92697 133.424 9.78196 130.781 14.361C128.138 18.94 122.283 20.508 117.704 17.865C113.126 15.221 111.557 9.36597 114.2 4.78797Z" fill="white"/>
<path d="M68.0581 109.319C67.3161 109.319 66.5651 109.128 65.8781 108.729L16.0361 79.711C13.9641 78.505 13.2631 75.847 14.4691 73.775C15.6761 71.703 18.3361 71.005 20.4051 72.208L70.2471 101.226C72.3191 102.432 73.0201 105.09 71.8141 107.162C71.0071 108.547 69.5531 109.319 68.0581 109.319Z" fill="white"/>
<path d="M41.4202 117.199C39.5042 117.199 37.7502 115.92 37.2312 113.98C36.6102 111.665 37.9842 109.284 40.3002 108.664L63.6852 102.398L57.5642 79.5529C56.9432 77.2379 58.3182 74.8569 60.6332 74.2369C62.9472 73.6079 65.3292 74.9899 65.9492 77.3059L73.1942 104.343C73.4932 105.455 73.3362 106.639 72.7612 107.637C72.1852 108.634 71.2372 109.361 70.1252 109.659L42.5462 117.049C42.1702 117.151 41.7922 117.199 41.4202 117.199Z" fill="white"/>
<path d="M31.1136 99.0129C29.1976 99.0129 27.4436 97.7339 26.9246 95.7949C26.3036 93.4799 27.6776 91.0989 29.9936 90.4789L39.4966 87.9319L36.8476 78.0399C36.2266 75.7239 37.6016 73.3439 39.9166 72.7239C42.2266 72.0959 44.6126 73.4769 45.2326 75.7929L49.0066 89.8769C49.6276 92.1929 48.2526 94.5729 45.9376 95.1929L32.2416 98.8629C31.8636 98.9659 31.4856 99.0129 31.1136 99.0129Z" fill="white"/>
<path d="M4.20824 77.86C1.56424 73.281 3.13324 67.427 7.71224 64.783C12.2912 62.14 18.1452 63.708 20.7892 68.287C23.4322 72.866 21.8643 78.72 17.2853 81.364C12.7063 84.007 6.85124 82.439 4.20824 77.86Z" fill="white"/>
<path d="M17.8578 200.909C16.3518 200.909 14.8888 200.125 14.0858 198.724C12.8948 196.644 13.6168 193.991 15.6968 192.8L65.7488 164.144C67.8298 162.955 70.4818 163.675 71.6728 165.755C72.8638 167.835 72.1418 170.488 70.0618 171.679L20.0098 200.335C19.3298 200.724 18.5888 200.909 17.8578 200.909Z" fill="white"/>
<path d="M61.4121 199.262C61.0401 199.262 60.6621 199.214 60.2861 199.113C57.9701 198.493 56.5961 196.113 57.2171 193.797L63.4831 170.412L40.6381 164.29C38.3231 163.67 36.9481 161.29 37.5691 158.974C38.1891 156.657 40.5671 155.279 42.8851 155.905L69.9231 163.151C71.0361 163.449 71.9831 164.176 72.5591 165.173C73.1351 166.17 73.2911 167.355 72.9921 168.467L65.6011 196.045C65.0821 197.983 63.3281 199.262 61.4121 199.262Z" fill="white"/>
<path d="M40.5102 199.097C40.1382 199.097 39.7602 199.049 39.3832 198.948C37.0672 198.328 35.6932 195.948 36.3142 193.632L38.8602 184.128L28.9682 181.478C26.6522 180.858 25.2782 178.478 25.8992 176.162C26.5182 173.845 28.8982 172.461 31.2152 173.093L45.3002 176.867C46.4122 177.165 47.3602 177.892 47.9362 178.889C48.5122 179.886 48.6682 181.071 48.3702 182.183L44.7002 195.879C44.1802 197.818 42.4262 199.097 40.5102 199.097Z" fill="white"/>
<path d="M16.1717 208.935C21.0564 206.911 23.3759 201.311 21.3526 196.426C19.3292 191.542 13.7292 189.222 8.84451 191.246C3.95983 193.269 1.64024 198.869 3.66359 203.754C5.68693 208.638 11.287 210.958 16.1717 208.935Z" fill="white"/>
<path d="M122.12 261.527C122.115 261.527 122.109 261.527 122.104 261.527C119.707 261.519 117.771 259.568 117.779 257.17L117.989 199.497C117.997 197.105 119.94 195.172 122.33 195.172C122.335 195.172 122.341 195.172 122.346 195.172C124.743 195.18 126.679 197.131 126.671 199.529L126.461 257.202C126.452 259.594 124.51 261.527 122.12 261.527Z" fill="white"/>
<path d="M142.471 222.983C141.36 222.983 140.249 222.559 139.402 221.711L122.282 204.592L105.558 221.316C103.865 223.012 101.116 223.012 99.4204 221.316C97.7244 219.621 97.7244 216.873 99.4204 215.178L119.213 195.384C120.841 193.756 123.723 193.756 125.351 195.384L145.54 215.573C147.236 217.268 147.236 220.017 145.54 221.711C144.693 222.56 143.582 222.983 142.471 222.983Z" fill="white"/>
<path d="M111.54 241.287C110.429 241.287 109.318 240.863 108.471 240.015C106.775 238.319 106.775 235.572 108.471 233.877L118.782 223.567C120.478 221.871 123.224 221.871 124.92 223.567L134.946 233.593C136.642 235.288 136.642 238.037 134.946 239.731C133.252 241.427 130.501 241.427 128.808 239.731L121.851 232.774L114.609 240.015C113.762 240.863 112.651 241.287 111.54 241.287Z" fill="white"/>
<path d="M130.771 268.371C128.127 272.95 122.273 274.518 117.694 271.875C113.115 269.232 111.547 263.377 114.19 258.798C116.834 254.219 122.688 252.651 127.267 255.294C131.845 257.938 133.414 263.792 130.771 268.371Z" fill="white"/>
<path d="M226.748 201.541C226.006 201.541 225.255 201.35 224.568 200.951L174.726 171.933C172.654 170.727 171.953 168.069 173.159 165.997C174.366 163.925 177.026 163.227 179.095 164.43L228.937 193.448C231.009 194.654 231.71 197.312 230.504 199.384C229.698 200.768 228.244 201.541 226.748 201.541Z" fill="white"/>
<path d="M183.211 199.071C181.295 199.071 179.541 197.792 179.022 195.853L171.778 168.815C171.157 166.499 172.532 164.119 174.847 163.499L202.425 156.109C204.737 155.482 207.12 156.862 207.741 159.178C208.362 161.493 206.988 163.874 204.672 164.494L181.287 170.76L187.408 193.606C188.029 195.922 186.654 198.302 184.339 198.922C183.961 199.024 183.583 199.071 183.211 199.071Z" fill="white"/>
<path d="M203.931 200.584C202.015 200.584 200.261 199.305 199.742 197.366L195.968 183.281C195.347 180.965 196.722 178.585 199.037 177.965L212.733 174.295C215.043 173.669 217.429 175.047 218.049 177.364C218.67 179.68 217.296 182.06 214.98 182.68L205.476 185.227L208.126 195.12C208.747 197.435 207.372 199.816 205.057 200.436C204.681 200.536 204.303 200.584 203.931 200.584Z" fill="white"/>
<path d="M240.763 195.299C243.407 199.878 241.838 205.732 237.259 208.376C232.68 211.019 226.826 209.451 224.182 204.872C221.539 200.293 223.107 194.439 227.686 191.795C232.265 189.151 238.12 190.72 240.763 195.299Z" fill="white"/>
<path d="M177.071 109.589C175.565 109.589 174.102 108.805 173.299 107.404C172.108 105.324 172.83 102.671 174.91 101.48L224.961 72.825C227.043 71.637 229.693 72.3549 230.885 74.4359C232.076 76.5159 231.355 79.1689 229.274 80.3599L179.223 109.016C178.543 109.403 177.802 109.589 177.071 109.589Z" fill="white"/>
<path d="M203.211 117.403C202.839 117.403 202.461 117.355 202.085 117.254L175.048 110.01C173.936 109.712 172.988 108.985 172.412 107.988C171.836 106.991 171.68 105.806 171.978 104.694L179.368 77.1149C179.988 74.7979 182.369 73.4189 184.684 74.0459C187 74.6659 188.374 77.0459 187.753 79.3619L181.488 102.748L204.332 108.869C206.648 109.489 208.022 111.869 207.401 114.185C206.881 116.124 205.128 117.403 203.211 117.403Z" fill="white"/>
<path d="M214.88 100.216C214.508 100.216 214.13 100.168 213.754 100.067L199.669 96.292C197.353 95.672 195.979 93.2921 196.6 90.9761L200.27 77.28C200.89 74.964 203.267 73.582 205.586 74.211C207.901 74.831 209.276 77.211 208.655 79.527L206.109 89.031L216.001 91.683C218.317 92.303 219.691 94.683 219.07 96.999C218.55 98.937 216.796 100.216 214.88 100.216Z" fill="white"/>
<path d="M232.477 82.6529C237.764 82.6529 242.05 78.3669 242.05 73.0798C242.05 67.7928 237.764 63.5068 232.477 63.5068C227.19 63.5068 222.904 67.7928 222.904 73.0798C222.904 78.3669 227.19 82.6529 232.477 82.6529Z" fill="white"/>
</svg>
